<?xml version="1.0" encoding="UTF-8" standalone="no"?>
<svg
   version="1.1"
   viewBox="0 0 750 460"
   width="750"
   height="460"
   xml:space="preserve"
   id="svg_root"
   sodipodi0:docname="gepegrna-structure-inkscape.svg"
   color="#000000"
   sodipodi:docname="gepegrna-structure-plain.svg"
   inkscape:version="1.4.3 (0d15f75, 2025-12-25)"
   xmlns:inkscape="http://www.inkscape.org/namespaces/inkscape"
   xmlns:sodipodi="http://sodipodi.sourceforge.net/DTD/sodipodi-0.dtd"
   xmlns="http://www.w3.org/2000/svg"
   xmlns:svg="http://www.w3.org/2000/svg"
   xmlns:rdf="http://www.w3.org/1999/02/22-rdf-syntax-ns#"
   xmlns:cc="http://creativecommons.org/ns#"
   xmlns:dc="http://purl.org/dc/elements/1.1/"
   xmlns:sodipodi0="http://sodipodi.sourceforge.net/DTD/sodipodi-0.0.dtd"><sodipodi:namedview
   id="namedview1"
   pagecolor="#ffffff"
   bordercolor="#000000"
   borderopacity="0.25"
   inkscape:showpageshadow="2"
   inkscape:pageopacity="0.0"
   inkscape:pagecheckerboard="0"
   inkscape:deskcolor="#d1d1d1"
   inkscape:zoom="2.3804348"
   inkscape:cx="374.93151"
   inkscape:cy="230"
   inkscape:window-width="2560"
   inkscape:window-height="1334"
   inkscape:window-x="-11"
   inkscape:window-y="-11"
   inkscape:window-maximized="1"
   inkscape:current-layer="g9" />
  <sodipodi0:namedview
   id="namedview1"
   pagecolor="#ffffff"
   bordercolor="#000000"
   borderopacity="0.25"
   showgrid="false" />
  <defs
   id="defs1"><rect
     x="665.84475"
     y="301.20548"
     width="63.853882"
     height="28.146119"
     id="rect6" /></defs>
  <metadata
   id="metadata1">
    <rdf:RDF>
      <cc:Work
   rdf:about="">
        <dc:format>image/svg+xml</dc:format>
        <dc:type
   rdf:resource="http://purl.org/dc/dcmitype/StillImage" />
        <dc:title>gepegRNA Structure</dc:title>
      </cc:Work>
    </rdf:RDF>
  </metadata>
<style
   type="text/css"
   id="style1">
.st0 { fill: #d5f3ac; opacity: 0.5; }
.st1 { opacity: 0.6; fill: #f0f181; }
.st2 { fill: #fdf4e1; opacity: 1; }
.st3 { fill: none; stroke: #055aaa; stroke-width: 3; stroke-linecap: round; stroke-miterlimit: 10; }
.st4 { fill: none; stroke: #055aaa; stroke-width: 2; stroke-miterlimit: 10; }
.st5 { fill: #ff8000; font-family: 'Courier New', monospace; font-size: 13px; font-weight: bold; stroke: currentColor; stroke-width: 0.2px; }
.st6 { font-size: 13px; font-weight: bold; }
.st7 { font-family: 'Courier New', monospace; font-size: 14px; letter-spacing: 2.6px; font-weight: bold; stroke: currentColor; stroke-width: 0.2px; }
.st8 { fill: none; stroke: #282828; stroke-width: 2; stroke-miterlimit: 10; }
.st9 { fill: none; }
/* .st10 { fill: none; stroke: #E74C3C; stroke-width: 2; stroke-linecap: round; stroke-dasharray: 4,2; } - commented out for future use */
.st11 { fill: #008800; }
.st12 { font-weight: bold; stroke: currentColor; stroke-width: 0.2px; }
.st13 { fill: #d32f2f; } /* New color for RT Template */
.st14 { fill: #055aaa; } /* New color for Spacer/Guide */
</style><path
   class="st0"
   d="m 304.5,388.5 c 8.4,6.8 17,0.3 24.8,6.9 6.3,5.4 7.2,16.2 5.4,23.5 -5.6,22.8 -41.9,31.6 -61.3,31.1 -5.5,-0.1 -9.7,-1 -13.3,-2.3 -9.2,-3.2 -17.1,-9.5 -22.6,-18.1 -6.9,-10.8 -9.6,-24 -10.1,-36.7 -0.6,-17.1 0,-18.2 -1.4,-31.6 -3.2,-31.8 -15.5,-40 -9.9,-49 5.3,-8.5 17.4,-3.1 57.1,-7.4 24.4,-2.7 28.7,-5 48,-5.4 14.9,-0.3 30.1,1.7 42.1,11.2 7.1,5.6 11.6,13.3 11.7,21.6 0.1,5.1 -1.6,9 -2.4,11 -0.3,0.7 -5.7,12.6 -15.7,16 -13.8,4.7 -21.5,-11.5 -38.6,-8.8 -7.8,1.2 -17.9,6.4 -20.5,15.8 -2.3,8.2 0.8,17.4 6.7,22.2 z"
   id="path1" /><g
   class="st1"
   id="g3"><path
     d="m 361.1,355.2 c -13.8,4.7 -21.5,-11.5 -38.6,-8.8 -6,0.9 -13.3,4.2 -17.6,9.9 4.1,-3.1 9.1,-5 13.4,-5.7 17.1,-2.7 24.8,13.5 38.6,8.8 4.4,-1.5 7.9,-4.6 10.5,-7.8 -1.8,1.5 -3.9,2.8 -6.3,3.6 z"
     id="path2" /><path
     d="m 226.1,361.3 c 1.4,13.4 0.8,14.5 1.4,31.6 0.4,12.7 3.2,25.9 10.1,36.7 5.5,8.6 13.3,15 22.6,18.1 3.6,1.2 7.8,2.1 13.3,2.3 15.8,0.4 43.1,-5.5 55.5,-20.1 -13.6,11.6 -37.1,16.3 -51.3,16 -5.5,-0.1 -9.7,-1 -13.3,-2.3 -9.2,-3.2 -17.1,-9.5 -22.6,-18.1 -6.9,-10.8 -9.6,-24 -10.1,-36.7 -0.6,-17.1 0,-18.2 -1.4,-31.6 -3.1,-30.9 -14.8,-39.5 -10.3,-48.3 -1.6,0.8 -2.8,1.9 -3.7,3.4 -5.7,9 6.6,17.3 9.8,49 z"
     id="path3" /></g><g
   id="g5"><path
     class="st2"
     d="M 464.3,190.6 C 429.6,175.1 404.8,179 373.3,173.4 348.1,169 304.6,161.3 281.3,129.9 259,99.8 273.5,72.5 243.2,41.8 236.7,35.2 225.3,24.1 208.5,22.2 183.9,19.5 164.2,38.3 155.9,46.4 140.2,61.6 133.8,78 129.7,88.5 c -8.5,21.7 -9.3,40.4 -9.7,51 -0.5,13.6 0.7,24.7 1.8,34.5 1.8,16.6 4.6,28.9 5.4,32.3 2.3,9.8 4.7,20.4 10.1,33.1 7.5,17.8 16.7,30.1 20.1,34.5 20.6,26.4 45.5,38.5 58.9,44.9 5.2,2.5 25.3,11.7 53.6,16.2 25.2,4 44.5,2.1 67.2,0 19.1,-1.8 32.4,-4.5 54.6,-9 27.6,-5.6 41.4,-8.8 52.1,-13.9 9.1,-4.3 52.4,-24.9 56.8,-62.7 0.4,-3.8 2,-20.7 -8.1,-36.6 -7.7,-12 -18.9,-18 -28.2,-22.2 z"
     id="path4" /><path
     class="st1"
     d="m 121.8,174.2 c 1.8,16.6 4.6,28.9 5.4,32.3 2.3,9.8 4.7,20.4 10.1,33.1 7.5,17.8 16.7,30.1 20.1,34.5 20.6,26.4 45.5,38.5 58.9,44.9 5.2,2.5 25.3,11.7 53.6,16.2 25.2,4 44.5,2.1 67.2,0 19.1,-1.8 32.4,-4.5 54.6,-9 27.6,-5.6 41.4,-8.8 52.1,-13.9 5.8,-2.8 25.4,-12.1 40,-28.2 -13.5,12.3 -28.8,19.6 -33.8,22 -10.7,5.1 -24.5,8.3 -52.1,13.9 -22.3,4.5 -35.5,7.2 -54.6,9 -22.7,2.1 -42,4 -67.2,0 -28.3,-4.4 -48.4,-13.7 -53.6,-16.2 -13.4,-6.4 -38.3,-18.6 -58.9,-44.9 -3.5,-4.4 -12.6,-16.7 -20.1,-34.5 -5.3,-12.7 -7.8,-23.2 -10.1,-33.1 -0.8,-3.5 -3.6,-15.7 -5.4,-32.3 -1.1,-9.8 -2.3,-20.9 -1.8,-34.5 0.4,-10.6 1.2,-29.4 9.7,-51 3.8,-9.6 9.5,-24.1 22.5,-38.2 -0.9,0.9 -1.7,1.7 -2.5,2.4 -15.7,15.2 -22.1,31.6 -26.2,42.1 -8.5,21.7 -9.3,40.4 -9.7,51 -0.5,13.5 0.7,24.6 1.8,34.4 z"
     id="path5" /></g><g
   id="g115"><line
     x1="231.64308"
     y1="154.75278"
     x2="227.09645"
     y2="158.79424"
     stroke="#1f77b4"
     stroke-width="1.5"
     opacity="0.8"
     id="line5" /><line
     x1="226.48557"
     y1="147.57072"
     x2="221.25397"
     y2="151.97629"
     stroke="#1f77b4"
     stroke-width="1.5"
     opacity="0.8"
     id="line6" /><line
     x1="220.48557"
     y1="140.57072"
     x2="215.25397"
     y2="144.97629"
     stroke="#1f77b4"
     stroke-width="1.5"
     opacity="0.8"
     id="line7" /><line
     x1="214.64308"
     y1="133.75278"
     x2="210.09645"
     y2="137.79424"
     stroke="#1f77b4"
     stroke-width="1.5"
     opacity="0.8"
     id="line8" /><line
     x1="208.45578"
     y1="127.53516"
     x2="204.28377"
     y2="131.01184"
     stroke="#1f77b4"
     stroke-width="1.5"
     opacity="0.8"
     id="line9" /><line
     x1="203.30583"
     y1="120.3503"
     x2="198.43372"
     y2="124.19671"
     stroke="#1f77b4"
     stroke-width="1.5"
     opacity="0.8"
     id="line10" /><line
     x1="197.30583"
     y1="113.3503"
     x2="192.43372"
     y2="117.19671"
     stroke="#1f77b4"
     stroke-width="1.5"
     opacity="0.8"
     id="line11" /><line
     x1="177.45578"
     y1="90.535164"
     x2="173.28377"
     y2="94.011841"
     stroke="#1f77b4"
     stroke-width="1.5"
     opacity="0.8"
     id="line12" /><line
     x1="172.30583"
     y1="83.350304"
     x2="167.43372"
     y2="87.196709"
     stroke="#1f77b4"
     stroke-width="1.5"
     opacity="0.8"
     id="line13" /><line
     x1="166.30583"
     y1="76.350304"
     x2="161.43372"
     y2="80.196709"
     stroke="#1f77b4"
     stroke-width="1.5"
     opacity="0.8"
     id="line14" /><line
     x1="160.64308"
     y1="69.752777"
     x2="156.09645"
     y2="73.794228"
     stroke="#1f77b4"
     stroke-width="1.5"
     opacity="0.8"
     id="line15" /><line
     x1="154.64308"
     y1="62.752777"
     x2="150.09645"
     y2="66.794228"
     stroke="#1f77b4"
     stroke-width="1.5"
     opacity="0.8"
     id="line16" /><line
     x1="149.48557"
     y1="55.570724"
     x2="144.25397"
     y2="59.976284"
     stroke="#1f77b4"
     stroke-width="1.5"
     opacity="0.8"
     id="line17" /><line
     x1="143.48557"
     y1="48.570724"
     x2="138.25397"
     y2="52.976284"
     stroke="#1f77b4"
     stroke-width="1.5"
     opacity="0.8"
     id="line18" /><line
     x1="137.45578"
     y1="42.535164"
     x2="133.28377"
     y2="46.011845"
     stroke="#1f77b4"
     stroke-width="1.5"
     opacity="0.8"
     id="line19" /><line
     x1="131.45578"
     y1="35.535164"
     x2="127.28376"
     y2="39.011845"
     stroke="#1f77b4"
     stroke-width="1.5"
     opacity="0.8"
     id="line20" /><line
     x1="246.30583"
     y1="295.35031"
     x2="241.43372"
     y2="299.19672"
     stroke="#1f77b4"
     stroke-width="1.5"
     opacity="0.8"
     id="line21" /><line
     x1="240.45578"
     y1="288.53516"
     x2="236.28377"
     y2="292.01184"
     stroke="#1f77b4"
     stroke-width="1.5"
     opacity="0.8"
     id="line22" /><line
     x1="234.64308"
     y1="281.75278"
     x2="230.09645"
     y2="285.79422"
     stroke="#1f77b4"
     stroke-width="1.5"
     opacity="0.8"
     id="line23" /><line
     x1="228.64308"
     y1="274.75278"
     x2="224.09645"
     y2="278.79422"
     stroke="#1f77b4"
     stroke-width="1.5"
     opacity="0.8"
     id="line24" /><line
     x1="214.64308"
     y1="321.75278"
     x2="210.09645"
     y2="325.79422"
     stroke="#1f77b4"
     stroke-width="1.5"
     opacity="0.8"
     id="line25" /><line
     x1="209.48557"
     y1="314.57074"
     x2="204.25397"
     y2="318.97629"
     stroke="#1f77b4"
     stroke-width="1.5"
     opacity="0.8"
     id="line26" /><line
     x1="203.64308"
     y1="307.75278"
     x2="199.09645"
     y2="311.79422"
     stroke="#1f77b4"
     stroke-width="1.5"
     opacity="0.8"
     id="line27" /><line
     x1="197.64308"
     y1="300.75278"
     x2="193.09645"
     y2="304.79422"
     stroke="#1f77b4"
     stroke-width="1.5"
     opacity="0.8"
     id="line28" /><line
     x1="191.45578"
     y1="294.53516"
     x2="187.28377"
     y2="298.01184"
     stroke="#1f77b4"
     stroke-width="1.5"
     opacity="0.8"
     id="line29" /><line
     x1="186.30583"
     y1="287.35031"
     x2="181.43372"
     y2="291.19672"
     stroke="#1f77b4"
     stroke-width="1.5"
     opacity="0.8"
     id="line30" /><text
     x="238"
     y="153"
     transform="rotate(-40,238,153)"
     class="st12"
     style="font-weight:bold;font-size:10px;font-family:'Courier New', monospace;fill:#ff10db"
     id="text30">G</text><text
     x="233"
     y="146"
     transform="rotate(-40,233,146)"
     class="st12"
     style="font-weight:bold;font-size:10px;font-family:'Courier New', monospace;fill:#ff10db"
     id="text31">U</text><text
     x="227"
     y="139"
     transform="rotate(-40,227,139)"
     class="st12"
     style="font-weight:bold;font-size:10px;font-family:'Courier New', monospace;fill:#ff10db"
     id="text32">U</text><text
     x="221"
     y="132"
     transform="rotate(-40,221,132)"
     class="st12"
     style="font-weight:bold;font-size:10px;font-family:'Courier New', monospace;fill:#ff10db"
     id="text33">U</text><text
     x="215"
     y="126"
     transform="rotate(-40,215,126)"
     class="st12"
     style="font-weight:bold;font-size:10px;font-family:'Courier New', monospace;fill:#ff10db"
     id="text34">A</text><text
     x="210"
     y="119"
     transform="rotate(-40,210,119)"
     class="st12"
     style="font-weight:bold;font-size:10px;font-family:'Courier New', monospace;fill:#ff10db"
     id="text35">A</text><text
     x="204"
     y="112"
     transform="rotate(-40,204,112)"
     class="st12"
     style="font-weight:bold;font-size:10px;font-family:'Courier New', monospace;fill:#ff10db"
     id="text36">G</text><text
     x="203"
     y="93"
     transform="rotate(-40,203,93)"
     class="st12"
     style="font-weight:bold;font-size:10px;font-family:'Courier New', monospace;fill:#ff10db"
     id="text37">A</text><text
     x="184"
     y="89"
     transform="rotate(-40,184,89)"
     class="st12"
     style="font-weight:bold;font-size:10px;font-family:'Courier New', monospace;fill:#ff10db"
     id="text38">G</text><text
     x="179"
     y="82"
     transform="rotate(-40,179,82)"
     class="st12"
     style="font-weight:bold;font-size:10px;font-family:'Courier New', monospace;fill:#ff10db"
     id="text39">C</text><text
     x="173"
     y="75"
     transform="rotate(-40,173,75)"
     class="st12"
     style="font-weight:bold;font-size:10px;font-family:'Courier New', monospace;fill:#ff10db"
     id="text40">U</text><text
     x="167"
     y="68"
     transform="rotate(-40,167,68)"
     class="st12"
     style="font-weight:bold;font-size:10px;font-family:'Courier New', monospace;fill:#ff10db"
     id="text41">A</text><text
     x="161"
     y="61"
     transform="rotate(-40,161,61)"
     class="st12"
     style="font-weight:bold;font-size:10px;font-family:'Courier New', monospace;fill:#ff10db"
     id="text42">U</text><text
     x="156"
     y="54"
     transform="rotate(-40,156,54)"
     class="st12"
     style="font-weight:bold;font-size:10px;font-family:'Courier New', monospace;fill:#ff10db"
     id="text43">G</text><text
     x="150"
     y="47"
     transform="rotate(-40,150,47)"
     class="st12"
     style="font-weight:bold;font-size:10px;font-family:'Courier New', monospace;fill:#ff10db"
     id="text44">C</text><text
     x="144"
     y="41"
     transform="rotate(-40,144,41)"
     class="st12"
     style="font-weight:bold;font-size:10px;font-family:'Courier New', monospace;fill:#ff10db"
     id="text45">U</text><text
     x="138"
     y="34"
     transform="rotate(-40,138,34)"
     class="st12"
     style="font-weight:bold;font-size:10px;font-family:'Courier New', monospace;fill:#ff10db"
     id="text46">G</text><text
     x="136"
     y="23"
     transform="rotate(-40,136,23)"
     class="st12"
     style="font-weight:bold;font-size:10px;font-family:'Courier New', monospace;fill:#ff10db"
     id="text47">G</text><text
     x="122"
     y="22"
     transform="rotate(-40,122,22)"
     class="st12"
     style="font-weight:bold;font-size:10px;font-family:'Courier New', monospace;fill:#ff10db"
     id="text48">A</text><text
     x="111"
     y="31"
     transform="rotate(-40,111,31)"
     class="st12"
     style="font-weight:bold;font-size:10px;font-family:'Courier New', monospace;fill:#ff10db"
     id="text49">A</text><text
     x="110"
     y="45"
     transform="rotate(-40,110,45)"
     class="st12"
     style="font-weight:bold;font-size:10px;font-family:'Courier New', monospace;fill:#ff10db"
     id="text50">A</text><text
     x="120"
     y="49"
     transform="rotate(-40,120,49)"
     class="st12"
     style="font-weight:bold;font-size:10px;font-family:'Courier New', monospace;fill:#ff10db"
     id="text51">C</text><text
     x="126"
     y="56"
     transform="rotate(-40,126,56)"
     class="st12"
     style="font-weight:bold;font-size:10px;font-family:'Courier New', monospace;fill:#ff10db"
     id="text52">A</text><text
     x="131"
     y="63"
     transform="rotate(-40,131,63)"
     class="st12"
     style="font-weight:bold;font-size:10px;font-family:'Courier New', monospace;fill:#ff10db"
     id="text53">G</text><text
     x="137"
     y="70"
     transform="rotate(-40,137,70)"
     class="st12"
     style="font-weight:bold;font-size:10px;font-family:'Courier New', monospace;fill:#ff10db"
     id="text54">C</text><text
     x="143"
     y="77"
     transform="rotate(-40,143,77)"
     class="st12"
     style="font-weight:bold;font-size:10px;font-family:'Courier New', monospace;fill:#ff10db"
     id="text55">A</text><text
     x="149"
     y="84"
     transform="rotate(-40,149,84)"
     class="st12"
     style="font-weight:bold;font-size:10px;font-family:'Courier New', monospace;fill:#ff10db"
     id="text56">U</text><text
     x="154"
     y="90"
     transform="rotate(-40,154,90)"
     class="st12"
     style="font-weight:bold;font-size:10px;font-family:'Courier New', monospace;fill:#ff10db"
     id="text57">A</text><text
     x="160"
     y="97"
     transform="rotate(-40,160,97)"
     class="st12"
     style="font-weight:bold;font-size:10px;font-family:'Courier New', monospace;fill:#ff10db"
     id="text58">G</text><text
     x="166"
     y="104"
     transform="rotate(-40,166,104)"
     class="st12"
     style="font-weight:bold;font-size:10px;font-family:'Courier New', monospace;fill:#ff10db"
     id="text59">C</text><text
     x="173"
     y="128"
     transform="rotate(-40,173,128)"
     class="st12"
     style="font-weight:bold;font-size:10px;font-family:'Courier New', monospace;fill:#ff10db"
     id="text60">A</text><text
     x="162"
     y="127"
     transform="rotate(-40,162,127)"
     class="st12"
     style="font-weight:bold;font-size:10px;font-family:'Courier New', monospace;fill:#ff10db"
     id="text61">A</text><text
     x="164"
     y="117"
     transform="rotate(-40,164,117)"
     class="st12"
     style="font-weight:bold;font-size:10px;font-family:'Courier New', monospace;fill:#ff10db"
     id="text62">G</text><text
     x="185"
     y="127"
     transform="rotate(-40,185,127)"
     class="st12"
     style="font-weight:bold;font-size:10px;font-family:'Courier New', monospace;fill:#ff10db"
     id="text63">U</text><text
     x="191"
     y="134"
     transform="rotate(-40,191,134)"
     class="st12"
     style="font-weight:bold;font-size:10px;font-family:'Courier New', monospace;fill:#ff10db"
     id="text64">U</text><text
     x="197"
     y="141"
     transform="rotate(-40,197,141)"
     class="st12"
     style="font-weight:bold;font-size:10px;font-family:'Courier New', monospace;fill:#ff10db"
     id="text65">U</text><text
     x="203"
     y="148"
     transform="rotate(-40,203,148)"
     class="st12"
     style="font-weight:bold;font-size:10px;font-family:'Courier New', monospace;fill:#ff10db"
     id="text66">A</text><text
     x="208"
     y="155"
     transform="rotate(-40,208,155)"
     class="st12"
     style="font-weight:bold;font-size:10px;font-family:'Courier New', monospace;fill:#ff10db"
     id="text67">A</text><text
     x="214"
     y="162"
     transform="rotate(-40,214,162)"
     class="st12"
     style="font-weight:bold;font-size:10px;font-family:'Courier New', monospace;fill:#ff10db"
     id="text68">A</text><text
     x="220"
     y="169"
     transform="rotate(-40,220,169)"
     class="st12"
     style="font-weight:bold;font-size:10px;font-family:'Courier New', monospace;fill:#ff10db"
     id="text69">U</text><text
     x="226"
     y="175"
     transform="rotate(-40,226,175)"
     class="st12"
     style="font-weight:bold;font-size:10px;font-family:'Courier New', monospace;fill:#ff10db"
     id="text70">A</text><text
     x="232"
     y="182"
     transform="rotate(-40,232,182)"
     class="st12"
     style="font-weight:bold;font-size:10px;font-family:'Courier New', monospace;fill:#ff10db"
     id="text71">A</text><text
     x="237"
     y="189"
     transform="rotate(-40,237,189)"
     class="st12"
     style="font-weight:bold;font-size:10px;font-family:'Courier New', monospace;fill:#ff10db"
     id="text72">G</text><text
     x="243"
     y="196"
     transform="rotate(-40,243,196)"
     class="st12"
     style="font-weight:bold;font-size:10px;font-family:'Courier New', monospace;fill:#ff10db"
     id="text73">G</text><text
     x="249"
     y="203"
     transform="rotate(-40,249,203)"
     class="st12"
     style="font-weight:bold;font-size:10px;font-family:'Courier New', monospace;fill:#ff10db"
     id="text74">C</text><text
     x="255"
     y="210"
     transform="rotate(-40,255,210)"
     class="st12"
     style="font-weight:bold;font-size:10px;font-family:'Courier New', monospace;fill:#ff10db"
     id="text75">U</text><text
     x="261"
     y="217"
     transform="rotate(-40,261,217)"
     class="st12"
     style="font-weight:bold;font-size:10px;font-family:'Courier New', monospace;fill:#ff10db"
     id="text76">A</text><text
     x="266"
     y="224"
     transform="rotate(-40,266,224)"
     class="st12"
     style="font-weight:bold;font-size:10px;font-family:'Courier New', monospace;fill:#ff10db"
     id="text77">G</text><text
     x="272"
     y="231"
     transform="rotate(-40,272,231)"
     class="st12"
     style="font-weight:bold;font-size:10px;font-family:'Courier New', monospace;fill:#ff10db"
     id="text78">U</text><text
     x="278"
     y="238"
     transform="rotate(-40,278,238)"
     class="st12"
     style="font-weight:bold;font-size:10px;font-family:'Courier New', monospace;fill:#ff10db"
     id="text79">C</text><text
     x="284"
     y="244"
     transform="rotate(-40,284,244)"
     class="st12"
     style="font-weight:bold;font-size:10px;font-family:'Courier New', monospace;fill:#ff10db"
     id="text80">C</text><text
     x="289"
     y="251"
     transform="rotate(-40,289,251)"
     class="st12"
     style="font-weight:bold;font-size:10px;font-family:'Courier New', monospace;fill:#ff10db"
     id="text81">G</text><text
     x="295"
     y="258"
     transform="rotate(-40,295,258)"
     class="st12"
     style="font-weight:bold;font-size:10px;font-family:'Courier New', monospace;fill:#ff10db"
     id="text82">U</text><text
     x="288"
     y="264"
     transform="rotate(-40,288,264)"
     class="st12"
     style="font-weight:bold;font-size:10px;font-family:'Courier New', monospace;fill:#ff10db"
     id="text83">U</text><text
     x="281"
     y="270"
     transform="rotate(-40,281,270)"
     class="st12"
     style="font-weight:bold;font-size:10px;font-family:'Courier New', monospace;fill:#ff10db"
     id="text84">A</text><text
     x="275"
     y="276"
     transform="rotate(-40,275,276)"
     class="st12"
     style="font-weight:bold;font-size:10px;font-family:'Courier New', monospace;fill:#ff10db"
     id="text85">U</text><text
     x="268"
     y="281"
     transform="rotate(-40,268,281)"
     class="st12"
     style="font-weight:bold;font-size:10px;font-family:'Courier New', monospace;fill:#ff10db"
     id="text86">C</text><text
     x="261"
     y="287"
     transform="rotate(-40,261,287)"
     class="st12"
     style="font-weight:bold;font-size:10px;font-family:'Courier New', monospace;fill:#ff10db"
     id="text87">A</text><text
     x="253"
     y="294"
     transform="rotate(-40,253,294)"
     class="st12"
     style="font-weight:bold;font-size:10px;font-family:'Courier New', monospace;fill:#ff10db"
     id="text88">A</text><text
     x="247"
     y="287"
     transform="rotate(-40,247,287)"
     class="st12"
     style="font-weight:bold;font-size:10px;font-family:'Courier New', monospace;fill:#ff10db"
     id="text89">C</text><text
     x="241"
     y="280"
     transform="rotate(-40,241,280)"
     class="st12"
     style="font-weight:bold;font-size:10px;font-family:'Courier New', monospace;fill:#ff10db"
     id="text90">U</text><text
     x="235"
     y="273"
     transform="rotate(-40,235,273)"
     class="st12"
     style="font-weight:bold;font-size:10px;font-family:'Courier New', monospace;fill:#ff10db"
     id="text91">U</text><text
     x="232"
     y="264"
     transform="rotate(-40,232,264)"
     class="st12"
     style="font-weight:bold;font-size:10px;font-family:'Courier New', monospace;fill:#ff10db"
     id="text92">G</text><text
     x="220"
     y="264"
     transform="rotate(-40,220,264)"
     class="st12"
     style="font-weight:bold;font-size:10px;font-family:'Courier New', monospace;fill:#ff10db"
     id="text93">A</text><text
     x="210"
     y="272"
     transform="rotate(-40,210,272)"
     class="st12"
     style="font-weight:bold;font-size:10px;font-family:'Courier New', monospace;fill:#ff10db"
     id="text94">A</text><text
     x="209"
     y="284"
     transform="rotate(-40,209,284)"
     class="st12"
     style="font-weight:bold;font-size:10px;font-family:'Courier New', monospace;fill:#ff10db"
     id="text95">A</text><text
     x="217"
     y="289"
     transform="rotate(-40,217,289)"
     class="st12"
     style="font-weight:bold;font-size:10px;font-family:'Courier New', monospace;fill:#ff10db"
     id="text96">A</text><text
     x="223"
     y="296"
     transform="rotate(-40,223,296)"
     class="st12"
     style="font-weight:bold;font-size:10px;font-family:'Courier New', monospace;fill:#ff10db"
     id="text97">A</text><text
     x="229"
     y="302"
     transform="rotate(-40,229,302)"
     class="st12"
     style="font-weight:bold;font-size:10px;font-family:'Courier New', monospace;fill:#ff10db"
     id="text98">G</text><text
     x="234"
     y="309"
     transform="rotate(-40,234,309)"
     class="st12"
     style="font-weight:bold;font-size:10px;font-family:'Courier New', monospace;fill:#ff10db"
     id="text99">U</text><text
     x="229"
     y="314"
     transform="rotate(-40,229,314)"
     class="st12"
     style="font-weight:bold;font-size:10px;font-family:'Courier New', monospace;fill:#ff10db"
     id="text100">G</text><text
     x="221"
     y="320"
     transform="rotate(-40,221,320)"
     class="st12"
     style="font-weight:bold;font-size:10px;font-family:'Courier New', monospace;fill:#0707b9"
     id="text101">C</text><text
     x="216"
     y="313"
     transform="rotate(-40,216,313)"
     class="st12"
     style="font-weight:bold;font-size:10px;font-family:'Courier New', monospace;fill:#0707b9"
     id="text102">G</text><text
     x="210"
     y="306"
     transform="rotate(-40,210,306)"
     class="st12"
     style="font-weight:bold;font-size:10px;font-family:'Courier New', monospace;fill:#0707b9"
     id="text103">G</text><text
     x="204"
     y="299"
     transform="rotate(-40,204,299)"
     class="st12"
     style="font-weight:bold;font-size:10px;font-family:'Courier New', monospace;fill:#ff10db"
     id="text104">C</text><text
     x="198"
     y="293"
     transform="rotate(-40,198,293)"
     class="st12"
     style="font-weight:bold;font-size:10px;font-family:'Courier New', monospace;fill:#ff10db"
     id="text105">C</text><text
     x="193"
     y="286"
     transform="rotate(-40,193,286)"
     class="st12"
     style="font-weight:bold;font-size:10px;font-family:'Courier New', monospace;fill:#ff10db"
     id="text106">G</text><text
     x="188"
     y="280"
     transform="rotate(-40,188,280)"
     class="st12"
     style="font-weight:bold;font-size:10px;font-family:'Courier New', monospace;fill:#ff10db"
     id="text107">A</text><text
     x="174"
     y="283"
     transform="rotate(-40,174,283)"
     class="st12"
     style="font-weight:bold;font-size:10px;font-family:'Courier New', monospace;fill:#ff10db"
     id="text108">G</text><text
     x="170"
     y="295"
     transform="rotate(-40,170,295)"
     class="st12"
     style="font-weight:bold;font-size:10px;font-family:'Courier New', monospace;fill:#ff10db"
     id="text109">U</text><text
     x="174"
     y="301"
     transform="rotate(-40,174,301)"
     class="st12"
     style="font-weight:bold;font-size:10px;font-family:'Courier New', monospace;fill:#ff10db"
     id="text110">C</text><text
     x="180"
     y="308"
     transform="rotate(-40,180,308)"
     class="st12"
     style="font-weight:bold;font-size:10px;font-family:'Courier New', monospace;fill:#ff10db"
     id="text111">G</text><text
     x="186"
     y="315"
     transform="rotate(-40,186,315)"
     class="st12"
     style="font-weight:bold;font-size:10px;font-family:'Courier New', monospace;fill:#ff10db"
     id="text112">G</text><text
     x="192"
     y="322"
     transform="rotate(-40,192,322)"
     class="st12"
     style="font-weight:bold;font-size:10px;font-family:'Courier New', monospace;fill:#0707b9"
     id="text113">C</text><text
     x="197"
     y="329"
     transform="rotate(-40,197,329)"
     class="st12"
     style="font-weight:bold;font-size:10px;font-family:'Courier New', monospace;fill:#0707b9"
     id="text114">C</text><text
     x="203"
     y="336"
     transform="rotate(-40,203,336)"
     class="st12"
     style="font-weight:bold;font-size:10px;font-family:'Courier New', monospace;fill:#0707b9"
     id="text115">G</text></g><g
   id="g162"><line
     x1="511.6102"
     y1="280.41394"
     x2="514.67438"
     y2="277.84277"
     stroke="#d4764e"
     stroke-width="1.2"
     id="line115" /><line
     x1="516.7525"
     y1="286.5423"
     x2="519.81671"
     y2="283.97113"
     stroke="#d4764e"
     stroke-width="1.2"
     id="line116" /><line
     x1="521.89484"
     y1="292.67065"
     x2="524.95898"
     y2="290.09949"
     stroke="#d4764e"
     stroke-width="1.2"
     id="line117" /><line
     x1="527.03711"
     y1="298.79901"
     x2="530.10132"
     y2="296.22784"
     stroke="#d4764e"
     stroke-width="1.2"
     id="line118" /><line
     x1="549.0083"
     y1="292.11469"
     x2="548.94196"
     y2="295.11395"
     stroke="#d4764e"
     stroke-width="1.8"
     id="line119" /><line
     x1="561.3028"
     y1="295.1525"
     x2="559.9646"
     y2="297.83752"
     stroke="#d4764e"
     stroke-width="1.8"
     id="line120" /><line
     x1="571.13037"
     y1="303.14011"
     x2="568.77557"
     y2="304.99881"
     stroke="#d4764e"
     stroke-width="1.8"
     id="line121" /><line
     x1="576.61688"
     y1="314.5542"
     x2="573.69452"
     y2="315.23215"
     stroke="#d4764e"
     stroke-width="1.8"
     id="line122" /><line
     x1="576.716"
     y1="327.21808"
     x2="573.78333"
     y2="326.58594"
     stroke="#d4764e"
     stroke-width="1.8"
     id="line123" /><line
     x1="571.40881"
     y1="338.71661"
     x2="569.02515"
     y2="336.89499"
     stroke="#d4764e"
     stroke-width="1.8"
     id="line124" /><line
     x1="561.7074"
     y1="346.85706"
     x2="560.32739"
     y2="344.19333"
     stroke="#d4764e"
     stroke-width="1.8"
     id="line125" /><text
     x="507.78"
     y="283.62787"
     transform="rotate(-50,507.77999,283.62787)"
     text-anchor="middle"
     dominant-baseline="central"
     class="st12"
     style="color:#1899e9;font-size:10px;font-family:'Courier New', monospace;fill:#1899e9"
     id="text125">C</text><text
     x="512.9223"
     y="289.75623"
     transform="rotate(-50,512.92229,289.75622)"
     text-anchor="middle"
     dominant-baseline="central"
     class="st12"
     style="color:#1899e9;font-size:10px;font-family:'Courier New', monospace;fill:#1899e9"
     id="text126">G</text><text
     x="518.06458"
     y="295.88458"
     transform="rotate(-50,518.06459,295.88458)"
     text-anchor="middle"
     dominant-baseline="central"
     class="st12"
     style="color:#1899e9;font-size:10px;font-family:'Courier New', monospace;fill:#1899e9"
     id="text127">C</text><text
     x="523.20691"
     y="302.01294"
     transform="rotate(-50,523.20689,302.01294)"
     text-anchor="middle"
     dominant-baseline="central"
     class="st12"
     style="color:#1899e9;font-size:10px;font-family:'Courier New', monospace;fill:#1899e9"
     id="text128">G</text><text
     x="530.11902"
     y="308.81897"
     transform="rotate(-50,530.11905,308.81898)"
     text-anchor="middle"
     dominant-baseline="central"
     class="st12"
     style="color:#1899e9;font-size:10px;font-family:'Courier New', monospace;fill:#1899e9"
     id="text129">G</text><text
     x="526.62213"
     y="317.76733"
     transform="rotate(-50,526.62212,317.76733)"
     text-anchor="middle"
     dominant-baseline="central"
     class="st12"
     style="color:#1899e9;font-size:10px;font-family:'Courier New', monospace;fill:#1899e9"
     id="text130">U</text><text
     x="527.27209"
     y="327.35269"
     transform="rotate(-50,527.27207,327.35268)"
     text-anchor="middle"
     dominant-baseline="central"
     class="st12"
     style="color:#1899e9;font-size:10px;font-family:'Courier New', monospace;fill:#1899e9"
     id="text131">U</text><text
     x="531.94495"
     y="335.74707"
     transform="rotate(-50,531.94495,335.74706)"
     text-anchor="middle"
     dominant-baseline="central"
     class="st12"
     style="color:#1899e9;font-size:10px;font-family:'Courier New', monospace;fill:#1899e9"
     id="text132">C</text><text
     x="539.74963"
     y="341.34961"
     transform="rotate(-50,539.74961,341.34962)"
     text-anchor="middle"
     dominant-baseline="central"
     class="st12"
     style="color:#1899e9;font-size:10px;font-family:'Courier New', monospace;fill:#1899e9"
     id="text133">U</text><text
     x="549.19769"
     y="343.09192"
     transform="rotate(-50,549.19768,343.09191)"
     text-anchor="middle"
     dominant-baseline="central"
     class="st12"
     style="color:#1899e9;font-size:10px;font-family:'Courier New', monospace;fill:#1899e9"
     id="text134">A</text><text
     x="558.4873"
     y="340.64166"
     transform="rotate(-50,558.48734,340.64167)"
     text-anchor="middle"
     dominant-baseline="central"
     class="st12"
     style="color:#1899e9;font-size:10px;font-family:'Courier New', monospace;fill:#1899e9"
     id="text135">U</text><text
     x="565.84698"
     y="334.46616"
     transform="rotate(-50,565.847,334.46617)"
     text-anchor="middle"
     dominant-baseline="central"
     class="st12"
     style="color:#1899e9;font-size:10px;font-family:'Courier New', monospace;fill:#1899e9"
     id="text136">C</text><text
     x="569.87317"
     y="325.74313"
     transform="rotate(-50,569.87315,325.74312)"
     text-anchor="middle"
     dominant-baseline="central"
     class="st12"
     style="color:#1899e9;font-size:10px;font-family:'Courier New', monospace;fill:#1899e9"
     id="text137">U</text><text
     x="569.79797"
     y="316.13605"
     transform="rotate(-50,569.79797,316.13605)"
     text-anchor="middle"
     dominant-baseline="central"
     class="st12"
     style="color:#1899e9;font-size:10px;font-family:'Courier New', monospace;fill:#1899e9"
     id="text138">A</text><text
     x="565.6358"
     y="307.47708"
     transform="rotate(-50,565.6358,307.47708)"
     text-anchor="middle"
     dominant-baseline="central"
     class="st12"
     style="color:#1899e9;font-size:10px;font-family:'Courier New', monospace;fill:#1899e9"
     id="text139">G</text><text
     x="558.18036"
     y="301.41751"
     transform="rotate(-50,558.18038,301.41752)"
     text-anchor="middle"
     dominant-baseline="central"
     class="st12"
     style="color:#1899e9;font-size:10px;font-family:'Courier New', monospace;fill:#1899e9"
     id="text140">U</text><text
     x="548.85352"
     y="299.11298"
     transform="rotate(-50,548.85352,299.11297)"
     text-anchor="middle"
     dominant-baseline="central"
     class="st12"
     style="color:#1899e9;font-size:10px;font-family:'Courier New', monospace;fill:#1899e9"
     id="text141">U</text><text
     x="539.4339"
     y="301.0029"
     transform="rotate(-50,539.43388,301.00291)"
     text-anchor="middle"
     dominant-baseline="central"
     class="st12"
     style="color:#1899e9;font-size:10px;font-family:'Courier New', monospace;fill:#1899e9"
     id="text142">A</text><text
     x="533.93152"
     y="293.01392"
     transform="rotate(-50,533.93151,293.01391)"
     text-anchor="middle"
     dominant-baseline="central"
     class="st12"
     style="color:#1899e9;font-size:10px;font-family:'Courier New', monospace;fill:#1899e9"
     id="text143">C</text><text
     x="528.78918"
     y="286.88556"
     transform="rotate(-50,528.78921,286.88555)"
     text-anchor="middle"
     dominant-baseline="central"
     class="st12"
     style="color:#1899e9;font-size:10px;font-family:'Courier New', monospace;fill:#1899e9"
     id="text144">G</text><text
     x="523.64691"
     y="280.7572"
     transform="rotate(-50,523.64691,280.7572)"
     text-anchor="middle"
     dominant-baseline="central"
     class="st12"
     style="color:#1899e9;font-size:10px;font-family:'Courier New', monospace;fill:#1899e9"
     id="text145">C</text><text
     x="518.50464"
     y="274.62885"
     transform="rotate(-50,518.50461,274.62884)"
     text-anchor="middle"
     dominant-baseline="central"
     class="st12"
     style="color:#1899e9;font-size:10px;font-family:'Courier New', monospace;fill:#1899e9"
     id="text146">G</text><text
     x="510.862"
     y="267.36047"
     transform="rotate(-50,510.86201,267.36046)"
     text-anchor="middle"
     dominant-baseline="central"
     class="st12"
     style="color:#1899e9;font-size:10px;font-family:'Courier New', monospace;fill:#1899e9"
     id="text147">U</text><text
     x="508.85931"
     y="257.4704"
     transform="rotate(-50,508.8593,257.4704)"
     text-anchor="middle"
     dominant-baseline="central"
     class="st12"
     style="color:#1899e9;font-size:10px;font-family:'Courier New', monospace;fill:#1899e9"
     id="text148">U</text><text
     x="517.54419"
     y="252.24107"
     transform="rotate(-50,517.54421,252.24107)"
     text-anchor="middle"
     dominant-baseline="central"
     class="st12"
     style="color:#1899e9;font-size:10px;font-family:'Courier New', monospace;fill:#1899e9"
     id="text149">A</text><text
     x="527.91077"
     y="253.80244"
     transform="rotate(-50,527.91079,253.80244)"
     text-anchor="middle"
     dominant-baseline="central"
     class="st12"
     style="color:#1899e9;font-size:10px;font-family:'Courier New', monospace;fill:#1899e9"
     id="text150">A</text><text
     x="536.72906"
     y="259.54987"
     transform="rotate(-50,536.72907,259.54985)"
     text-anchor="middle"
     dominant-baseline="central"
     class="st12"
     style="color:#1899e9;font-size:10px;font-family:'Courier New', monospace;fill:#1899e9"
     id="text151">A</text><text
     x="543.12372"
     y="267.93954"
     transform="rotate(-50,543.12374,267.93955)"
     text-anchor="middle"
     dominant-baseline="central"
     class="st12"
     style="color:#1899e9;font-size:10px;font-family:'Courier New', monospace;fill:#1899e9"
     id="text152">C</text><text
     x="547.10254"
     y="277.72781"
     transform="rotate(-50,547.10257,277.72782)"
     text-anchor="middle"
     dominant-baseline="central"
     class="st12"
     style="color:#1899e9;font-size:10px;font-family:'Courier New', monospace;fill:#1899e9"
     id="text153">C</text><text
     x="549.09674"
     y="288.11566"
     transform="rotate(-50,549.09674,288.11566)"
     text-anchor="middle"
     dominant-baseline="central"
     class="st12"
     style="color:#1899e9;font-size:10px;font-family:'Courier New', monospace;fill:#1899e9"
     id="text154">A</text><text
     x="563.08704"
     y="291.57248"
     transform="rotate(-50,563.08704,291.57249)"
     text-anchor="middle"
     dominant-baseline="central"
     class="st12"
     style="color:#1899e9;font-size:10px;font-family:'Courier New', monospace;fill:#1899e9"
     id="text155">A</text><text
     x="574.27014"
     y="300.66183"
     transform="rotate(-50,574.27017,300.66183)"
     text-anchor="middle"
     dominant-baseline="central"
     class="st12"
     style="color:#1899e9;font-size:10px;font-family:'Courier New', monospace;fill:#1899e9"
     id="text156">C</text><text
     x="580.51343"
     y="313.65027"
     transform="rotate(-50,580.51342,313.65028)"
     text-anchor="middle"
     dominant-baseline="central"
     class="st12"
     style="color:#1899e9;font-size:10px;font-family:'Courier New', monospace;fill:#1899e9"
     id="text157">U</text><text
     x="580.62622"
     y="328.06088"
     transform="rotate(-50,580.62619,328.06089)"
     text-anchor="middle"
     dominant-baseline="central"
     class="st12"
     style="color:#1899e9;font-size:10px;font-family:'Courier New', monospace;fill:#1899e9"
     id="text158">A</text><text
     x="574.58698"
     y="341.14545"
     transform="rotate(-50,574.58697,341.14546)"
     text-anchor="middle"
     dominant-baseline="central"
     class="st12"
     style="color:#1899e9;font-size:10px;font-family:'Courier New', monospace;fill:#1899e9"
     id="text159">G</text><text
     x="563.54749"
     y="350.40869"
     transform="rotate(-50,563.54747,350.4087)"
     text-anchor="middle"
     dominant-baseline="central"
     class="st12"
     style="color:#1899e9;font-size:10px;font-family:'Courier New', monospace;fill:#1899e9"
     id="text160">A</text><text
     x="560.68628"
     y="366.09271"
     transform="rotate(-50,560.68629,366.09272)"
     text-anchor="middle"
     dominant-baseline="central"
     class="st12"
     style="color:#1899e9;font-size:10px;font-family:'Courier New', monospace;fill:#1899e9"
     id="text161">A</text><text
     x="557.68628"
     y="386.09271"
     class="st5 st6"
     style="color:#1899e9;font-size:14px;fill:#1899e9;stroke:none"
     id="text162">3<tspan
   dy="-1"
   dx="-3"
   id="tspan161">'</tspan></text></g><text
   class="st5 st7"
   id="text163"
   x="253.93851"
   y="198.8576">cgGaggagcaccccgtcctc</text><path
   id="Line_2_"
   class="st9"
   d="M 478.1,198.3" /><path
   class="st9"
   d="M 478.1,237.9"
   id="path163" /><g
   id="g188"><path
     d="M 77.8,256.3"
     id="path164" /><path
     d="M 77.8,180.3"
     id="path165" /><text
     transform="translate(69.1657,189.8603)"
     class="st5 st6"
     id="text165">5'</text><text
     transform="translate(70.3651,261.527)"
     class="st5 st6"
     id="text166">3'</text><line
     class="st8"
     x1="56.799999"
     y1="241.3"
     x2="248.8"
     y2="240.3"
     id="line166" /><path
     id="Line_1_"
     class="st9"
     d="M 56.8,240.6" /><path
     class="st9"
     d="M 56.8,201"
     id="path166" /><line
     class="st8"
     x1="55.799999"
     y1="201.8"
     x2="247.8"
     y2="200.8"
     id="line167" /><g
     id="g187"><line
       class="st8"
       x1="72.800003"
       y1="207.8"
       x2="72.800003"
       y2="231.8"
       id="line168" /><line
       class="st8"
       x1="81.91053"
       y1="207.8"
       x2="81.91053"
       y2="231.8"
       id="line169" /><line
       class="st8"
       x1="91.021049"
       y1="207.8"
       x2="91.021049"
       y2="231.8"
       id="line170" /><line
       class="st8"
       x1="100.13158"
       y1="207.8"
       x2="100.13158"
       y2="231.8"
       id="line171" /><line
       class="st8"
       x1="109.2421"
       y1="207.8"
       x2="109.2421"
       y2="231.8"
       id="line172" /><line
       class="st8"
       x1="118.35263"
       y1="207.8"
       x2="118.35263"
       y2="231.8"
       id="line173" /><line
       class="st8"
       x1="127.46316"
       y1="207.8"
       x2="127.46316"
       y2="231.8"
       id="line174" /><line
       class="st8"
       x1="136.57368"
       y1="207.8"
       x2="136.57368"
       y2="231.8"
       id="line175" /><line
       class="st8"
       x1="145.6842"
       y1="207.8"
       x2="145.6842"
       y2="231.8"
       id="line176" /><line
       class="st8"
       x1="154.79474"
       y1="207.8"
       x2="154.79474"
       y2="231.8"
       id="line177" /><line
       class="st8"
       x1="163.90526"
       y1="207.8"
       x2="163.90526"
       y2="231.8"
       id="line178" /><line
       class="st8"
       x1="173.01579"
       y1="207.8"
       x2="173.01579"
       y2="231.8"
       id="line179" /><line
       class="st8"
       x1="182.12631"
       y1="207.8"
       x2="182.12631"
       y2="231.8"
       id="line180" /><line
       class="st8"
       x1="191.23685"
       y1="207.8"
       x2="191.23685"
       y2="231.8"
       id="line181" /><line
       class="st8"
       x1="200.34737"
       y1="207.8"
       x2="200.34737"
       y2="231.8"
       id="line182" /><line
       class="st8"
       x1="209.4579"
       y1="207.8"
       x2="209.4579"
       y2="231.8"
       id="line183" /><line
       class="st8"
       x1="218.56842"
       y1="207.8"
       x2="218.56842"
       y2="231.8"
       id="line184" /><line
       class="st8"
       x1="227.67894"
       y1="207.8"
       x2="227.67894"
       y2="231.8"
       id="line185" /><line
       class="st8"
       x1="236.78947"
       y1="207.8"
       x2="236.78947"
       y2="231.8"
       id="line186" /><line
       class="st8"
       x1="245.89999"
       y1="207.8"
       x2="245.89999"
       y2="231.8"
       id="line187" /></g></g><path
   id="Line_10_"
   d="M 287.7,237.5" /><path
   id="Line_9_"
   d="M 479.7,237.5" /><path
   d="M 287.7,277.1"
   id="path188" /><path
   d="M 479.7,277.1"
   id="path189" /><path
   id="Line_8_"
   d="M 186.3,237.6" /><text
   class="st14 st12 st7"
   id="text189"
   x="252.3311"
   y="156.298">gcCuccucguggggcaggag</text><text
   transform="rotate(30.000728)"
   class="st13 st12 st7"
   style="font-size:13.9997px;letter-spacing:2.59994px"
   id="text190"
   x="352.44757"
   y="179.58086">UGUGG</text><text
   transform="rotate(30.000728)"
   class="st5 st12 st7"
   id="text191"
   x="343.11627"
   y="87.924507">gcC</text><g
   id="g215"><path
     d="M 617,255.3"
     id="path191" /><path
     d="M 617,179.3"
     id="path192" /><text
     transform="translate(615.4731,188.9085)"
     class="st5 st6"
     id="text192">3'</text><text
     transform="translate(615.4731,260.5741)"
     class="st5 st6"
     id="text193">5'</text><g
     id="g194"><line
       class="st8"
       x1="478"
       y1="240.3"
       x2="670"
       y2="239.3"
       id="line193" /><path
       id="Line_4_"
       class="st9"
       d="M 670.5,239.7" /><path
       id="Line_3_"
       class="st9"
       d="M 478.6,239.7" /><path
       class="st9"
       d="M 670.5,200.1"
       id="path193" /><path
       class="st9"
       d="M 478.6,200.1"
       id="path194" /><line
       class="st8"
       x1="477.60001"
       y1="200.8"
       x2="669.59998"
       y2="199.8"
       id="line194" /></g><g
     id="g214"><line
       class="st8"
       x1="483"
       y1="207.8"
       x2="483"
       y2="231.8"
       id="line195" /><line
       class="st8"
       x1="492.11578"
       y1="207.8"
       x2="492.11578"
       y2="231.8"
       id="line196" /><line
       class="st8"
       x1="501.23157"
       y1="207.8"
       x2="501.23157"
       y2="231.8"
       id="line197" /><line
       class="st8"
       x1="510.34738"
       y1="207.8"
       x2="510.34738"
       y2="231.8"
       id="line198" /><line
       class="st8"
       x1="519.46313"
       y1="207.8"
       x2="519.46313"
       y2="231.8"
       id="line199" /><line
       class="st8"
       x1="528.57892"
       y1="207.8"
       x2="528.57892"
       y2="231.8"
       id="line200" /><line
       class="st8"
       x1="537.69476"
       y1="207.8"
       x2="537.69476"
       y2="231.8"
       id="line201" /><line
       class="st8"
       x1="546.81055"
       y1="207.8"
       x2="546.81055"
       y2="231.8"
       id="line202" /><line
       class="st8"
       x1="555.92633"
       y1="207.8"
       x2="555.92633"
       y2="231.8"
       id="line203" /><line
       class="st8"
       x1="565.04211"
       y1="207.8"
       x2="565.04211"
       y2="231.8"
       id="line204" /><line
       class="st8"
       x1="574.1579"
       y1="207.8"
       x2="574.1579"
       y2="231.8"
       id="line205" /><line
       class="st8"
       x1="583.27368"
       y1="207.8"
       x2="583.27368"
       y2="231.8"
       id="line206" /><line
       class="st8"
       x1="592.38947"
       y1="207.8"
       x2="592.38947"
       y2="231.8"
       id="line207" /><line
       class="st8"
       x1="601.50525"
       y1="207.8"
       x2="601.50525"
       y2="231.8"
       id="line208" /><line
       class="st8"
       x1="610.62103"
       y1="207.8"
       x2="610.62103"
       y2="231.8"
       id="line209" /><line
       class="st8"
       x1="619.73682"
       y1="207.8"
       x2="619.73682"
       y2="231.8"
       id="line210" /><line
       class="st8"
       x1="628.85266"
       y1="207.8"
       x2="628.85266"
       y2="231.8"
       id="line211" /><line
       class="st8"
       x1="637.96844"
       y1="207.8"
       x2="637.96844"
       y2="231.8"
       id="line212" /><line
       class="st8"
       x1="647.08423"
       y1="207.8"
       x2="647.08423"
       y2="231.8"
       id="line213" /><line
       class="st8"
       x1="656.20001"
       y1="207.8"
       x2="656.20001"
       y2="231.8"
       id="line214" /></g></g><g
   id="g225"><text
     transform="matrix(0.866,-0.5,0.5,0.866,321.33,332.5125)"
     class="st5 st12 st7"
     id="text215">uccucguggggcaggag</text><text
     transform="matrix(0.866,-0.5,0.5,0.866,345.5946,368.1297)"
     id="text216"><tspan
       x="0"
       y="0"
       class="st11 st12 st7"
       id="tspan215">AGGAGCACC</tspan><tspan
       x="100"
       y="0"
       class="st12 st7"
       style="fill:#9b31c5"
       id="tspan216">AAUUAUCA</tspan></text><g
     id="g224"><line
       class="st8"
       x1="407"
       y1="289.79999"
       x2="419"
       y2="310.60001"
       id="line216" /><line
       class="st8"
       x1="398.20001"
       y1="294.89999"
       x2="410.20001"
       y2="315.70001"
       id="line217" /><line
       class="st8"
       x1="389.10001"
       y1="300.10001"
       x2="401.10001"
       y2="320.89999"
       id="line218" /><line
       class="st8"
       x1="379.39999"
       y1="305.70001"
       x2="391.39999"
       y2="326.5"
       id="line219" /><line
       class="st8"
       x1="370.60001"
       y1="310.79999"
       x2="382.60001"
       y2="331.60001"
       id="line220" /><line
       class="st8"
       x1="361.60001"
       y1="316"
       x2="373.60001"
       y2="336.79999"
       id="line221" /><line
       class="st8"
       x1="353.79999"
       y1="320.5"
       x2="365.79999"
       y2="341.29999"
       id="line222" /><line
       class="st8"
       x1="344.70001"
       y1="325.79999"
       x2="356.70001"
       y2="346.5"
       id="line223" /><line
       class="st8"
       x1="334.89999"
       y1="331.39999"
       x2="346.89999"
       y2="352.20001"
       id="line224" /></g></g><text
   id="text225"
   x="285.10989"
   y="365.01169"><tspan
     x="285.10989"
     y="365.01169"
     class="st13 st12 st7"
     style="font-size:14px;letter-spacing:2.6px"
     id="tspan225">CCCGA</tspan></text><text
   id="text226"
   x="259.43701"
   y="419.9679"><tspan
     x="269.43701"
     y="364.9679"
     class="st13 st12 st7"
     style="font-size:14px;letter-spacing:2.6px"
     id="tspan226">C</tspan></text><g
   id="g247"><line
     class="st8"
     x1="256.60001"
     y1="188.60001"
     x2="256.60001"
     y2="164.60001"
     id="line228" /><line
     class="st8"
     x1="267.67896"
     y1="188.60001"
     x2="267.67896"
     y2="164.60001"
     id="line229" /><line
     class="st8"
     x1="278.7579"
     y1="188.60001"
     x2="278.7579"
     y2="164.60001"
     id="line230" /><line
     class="st8"
     x1="289.83685"
     y1="188.60001"
     x2="289.83685"
     y2="164.60001"
     id="line231" /><line
     class="st8"
     x1="300.9158"
     y1="188.60001"
     x2="300.9158"
     y2="164.60001"
     id="line232" /><line
     class="st8"
     x1="311.99475"
     y1="188.60001"
     x2="311.99475"
     y2="164.60001"
     id="line233" /><line
     class="st8"
     x1="323.07367"
     y1="188.60001"
     x2="323.07367"
     y2="164.60001"
     id="line234" /><line
     class="st8"
     x1="334.15262"
     y1="188.60001"
     x2="334.15262"
     y2="164.60001"
     id="line235" /><line
     class="st8"
     x1="345.23157"
     y1="188.60001"
     x2="345.23157"
     y2="164.60001"
     id="line236" /><line
     class="st8"
     x1="356.31052"
     y1="188.60001"
     x2="356.31052"
     y2="164.60001"
     id="line237" /><line
     class="st8"
     x1="367.38947"
     y1="188.60001"
     x2="367.38947"
     y2="164.60001"
     id="line238" /><line
     class="st8"
     x1="378.46841"
     y1="188.60001"
     x2="378.46841"
     y2="164.60001"
     id="line239" /><line
     class="st8"
     x1="389.54736"
     y1="188.60001"
     x2="389.54736"
     y2="164.60001"
     id="line240" /><line
     class="st8"
     x1="400.62631"
     y1="188.60001"
     x2="400.62631"
     y2="164.60001"
     id="line241" /><line
     class="st8"
     x1="411.70526"
     y1="188.60001"
     x2="411.70526"
     y2="164.60001"
     id="line242" /><line
     class="st8"
     x1="422.78421"
     y1="188.60001"
     x2="422.78421"
     y2="164.60001"
     id="line243" /><line
     class="st8"
     x1="433.86316"
     y1="188.60001"
     x2="433.86316"
     y2="164.60001"
     id="line244" /><line
     class="st8"
     x1="444.94211"
     y1="188.60001"
     x2="444.94211"
     y2="164.60001"
     id="line245" /><line
     class="st8"
     x1="456.02106"
     y1="188.60001"
     x2="456.02106"
     y2="164.60001"
     id="line246" /><line
     class="st8"
     x1="467.10001"
     y1="188.60001"
     x2="467.10001"
     y2="164.60001"
     id="line247" /></g><text
   class="st14"
   style="font-size:13px;font-family:sans-serif"
   id="text247"
   x="471"
   y="151">5'</text><path
   style="font-size:9.33333px;mix-blend-mode:darken;fill:#055aaa;fill-opacity:0.878431;stroke:#055aaa;stroke-width:0.5;paint-order:markers stroke fill"
   d="m 355.28926,140.5857 q -0.55599,0.25521 -1.2168,0.44661 -0.65625,0.18685 -1.27148,0.18685 -0.79297,0 -1.45378,-0.21875 -0.66081,-0.21875 -1.12565,-0.65625 -0.4694,-0.44205 -0.72461,-1.10286 -0.25521,-0.66537 -0.25521,-1.55404 0,-1.62695 0.94792,-2.56575 0.95247,-0.94336 2.61133,-0.94336 0.57877,0 1.18034,0.14128 0.60611,0.13671 1.30338,0.4694 v 1.07096 h -0.082 q -0.14128,-0.10938 -0.41016,-0.28711 -0.26888,-0.17773 -0.52864,-0.29622 -0.31446,-0.14128 -0.7155,-0.23243 -0.39648,-0.0957 -0.90234,-0.0957 -1.13932,0 -1.80469,0.73372 -0.6608,0.72917 -0.6608,1.97787 0,1.31706 0.6927,2.05078 0.69271,0.72917 1.88672,0.72917 0.4375,0 0.87044,-0.0866 0.4375,-0.0866 0.76563,-0.22331 v -1.66341 h -1.81836 v -0.79297 h 2.71159 z m 5.72851,0.5013 H 360.161 v -0.5651 q -0.43294,0.34179 -0.82943,0.52409 -0.39648,0.18229 -0.875,0.18229 -0.80208,0 -1.24869,-0.48763 -0.44662,-0.49219 -0.44662,-1.44011 v -3.30403 h 0.85677 v 2.89843 q 0,0.38737 0.0365,0.66537 0.0365,0.27344 0.15495,0.4694 0.12305,0.20052 0.31901,0.29167 0.19596,0.0911 0.56966,0.0911 0.33268,0 0.72461,-0.17317 0.39648,-0.17318 0.73828,-0.44206 v -3.80078 h 0.85677 z m 2.60677,-5.94271 h -0.96614 v -0.88867 h 0.96614 z m -0.0547,5.94271 h -0.85677 v -5.09049 h 0.85677 z m 5.82422,0 h -0.85677 v -0.5332 q -0.36914,0.31901 -0.77018,0.49674 -0.40104,0.17774 -0.87044,0.17774 -0.91146,0 -1.44922,-0.70183 -0.53321,-0.70182 -0.53321,-1.94596 0,-0.64713 0.1823,-1.15299 0.18685,-0.50586 0.5013,-0.86133 0.30989,-0.34635 0.72005,-0.52865 0.41471,-0.18229 0.85677,-0.18229 0.40104,0 0.71094,0.0866 0.30989,0.082 0.65169,0.25977 v -2.20573 h 0.85677 z m -0.85677,-1.25325 v -2.92123 q -0.34635,-0.15494 -0.61979,-0.21419 -0.27344,-0.0592 -0.59701,-0.0592 -0.72005,0 -1.12109,0.5013 -0.40104,0.5013 -0.40104,1.42187 0,0.9069 0.30989,1.38086 0.3099,0.4694 0.99349,0.4694 0.36459,0 0.73828,-0.1595 0.3737,-0.16407 0.69727,-0.41927 z m 6.80403,-1.20313 h -3.75065 q 0,0.4694 0.14128,0.82031 0.14128,0.34636 0.38737,0.56967 0.23698,0.21875 0.56055,0.32812 0.32812,0.10937 0.72005,0.10937 0.51953,0 1.04362,-0.20507 0.52864,-0.20964 0.75195,-0.41016 h 0.0456 v 0.93425 q -0.43294,0.18229 -0.88411,0.30533 -0.45117,0.12305 -0.94792,0.12305 -1.26692,0 -1.97786,-0.68359 -0.71094,-0.68815 -0.71094,-1.95052 0,-1.2487 0.67904,-1.98242 0.68359,-0.73373 1.79557,-0.73373 1.02995,0 1.58594,0.60156 0.56054,0.60157 0.56054,1.70899 z m -0.83398,-0.65625 q -0.005,-0.67448 -0.3418,-1.04362 -0.33268,-0.36914 -1.01627,-0.36914 -0.68815,0 -1.09831,0.4056 -0.4056,0.4056 -0.46029,1.00716 z"
   id="text227-45"
   aria-label="Guide" /><path
   id="rect227"
   style="fill:none;fill-opacity:0.878431;stroke:#055aaa;stroke-width:0.785739;paint-order:markers stroke fill"
   d="m 346.46102,130.81776 h 31.6 c 1.59057,0 2.87106,1.2805 2.87106,2.87107 v 8.07487 c 0,1.59057 -1.28049,2.87106 -2.87106,2.87106 h -31.6 c -1.59057,0 -2.87106,-1.28049 -2.87106,-2.87106 v -8.07487 c 0,-1.59057 1.28049,-2.87107 2.87106,-2.87107 z" /><path
   style="font-size:9.33333px;mix-blend-mode:darken;fill:#d32f2f;stroke:#882820;stroke-width:0.5;stroke-opacity:0.862745;paint-order:markers stroke fill"
   d="m 262.22399,381.34271 h -1.17123 l -2.26953,-2.69792 h -1.27148 v 2.69792 h -0.90235 v -6.78581 h 1.90039 q 0.61524,0 1.02539,0.082 0.41016,0.0775 0.73829,0.28255 0.36914,0.23243 0.57421,0.58789 0.20964,0.35092 0.20964,0.89323 0,0.73373 -0.36914,1.23047 -0.36914,0.49219 -1.01628,0.74284 z m -2.11003,-4.87631 q 0,-0.29166 -0.10482,-0.51497 -0.10026,-0.22786 -0.33724,-0.38281 -0.19596,-0.13216 -0.46484,-0.18229 -0.26888,-0.0547 -0.63346,-0.0547 h -1.06185 v 2.5612 h 0.91146 q 0.42838,0 0.74739,-0.0729 0.31901,-0.0775 0.54232,-0.28255 0.20508,-0.19141 0.30078,-0.4375 0.10026,-0.25065 0.10026,-0.63347 z m 7.55143,-1.10742 h -2.42448 v 5.98373 h -0.90234 v -5.98373 h -2.42448 v -0.80208 h 5.7513 z m 5.43229,0 h -2.42448 v 5.98373 h -0.90234 v -5.98373 h -2.42448 v -0.80208 h 5.7513 z"
   id="text227-7"
   aria-label="RTT" /><path
   id="rect227-54"
   style="fill:none;fill-opacity:0.878431;stroke:#d32f2f;stroke-width:0.682833;paint-order:markers stroke fill"
   d="m 253.41126,371.02203 h 22.20807 c 1.60242,0 2.89245,1.29003 2.89245,2.89244 v 8.13501 c 0,1.60242 -1.29003,2.89245 -2.89245,2.89245 h -22.20807 c -1.60242,0 -2.89245,-1.29003 -2.89245,-2.89245 v -8.13501 c 0,-1.60241 1.29003,-2.89244 2.89245,-2.89244 z" /><path
   style="font-size:9.33333px;mix-blend-mode:darken;fill:#008800;fill-opacity:0.968627;stroke:#006200;stroke-width:0.5;paint-order:markers stroke fill"
   d="m 391.69386,355.76632 q 0.22277,0.39234 0.27534,0.80795 0.0543,0.4094 -0.0519,0.79461 -0.13189,0.47842 -0.46025,0.86926 -0.33061,0.38687 -0.96469,0.7469 l -0.78468,0.44554 1.24886,2.19947 -0.78467,0.44554 -3.35056,-5.90092 1.60107,-0.90909 q 0.53103,-0.30152 0.95135,-0.41965 0.41806,-0.12209 0.8114,-0.0939 0.46513,0.0346 0.8387,0.26797 0.37752,0.2311 0.67005,0.74629 z m -0.80512,0.48337 q -0.17327,-0.30515 -0.40853,-0.47028 -0.23526,-0.16515 -0.53423,-0.18405 -0.25998,-0.0149 -0.53495,0.0731 -0.27324,0.0818 -0.64577,0.29331 l -0.77675,0.44104 1.33887,2.35798 0.66183,-0.37578 q 0.47556,-0.27003 0.72553,-0.52201 0.24773,-0.25596 0.32823,-0.54797 0.0783,-0.29599 0.0343,-0.54879 -0.04,-0.25502 -0.18855,-0.51658 z m 7.59731,-1.29513 q 0.24977,0.43989 0.27459,0.87126 0.0248,0.43136 -0.13279,0.80909 -0.18438,0.45057 -0.52164,0.78882 -0.3333,0.33598 -0.94756,0.68476 l -2.09247,1.18811 -3.35056,-5.90092 1.74769,-0.99234 q 0.64598,-0.36679 0.99399,-0.50149 0.34801,-0.1347 0.72678,-0.15062 0.42172,-0.0141 0.72137,0.17211 0.2974,0.18227 0.50892,0.55479 0.23852,0.42008 0.19328,0.83882 -0.0475,0.41477 -0.3029,0.79563 l 0.018,0.0317 q 0.66817,-0.21693 1.24248,-0.008 0.57204,0.20449 0.92083,0.81876 z m -2.82958,-1.90986 q -0.12151,-0.214 -0.27607,-0.32015 -0.15457,-0.10614 -0.36487,-0.10727 -0.24701,-10e-4 -0.52604,0.12575 -0.28127,0.12302 -0.67361,0.34579 l -0.93527,0.53105 0.96759,1.70409 1.01453,-0.57605 q 0.36856,-0.20927 0.56628,-0.36869 0.19545,-0.16341 0.31422,-0.38804 0.11876,-0.22465 0.0883,-0.45367 -0.0288,-0.23521 -0.17505,-0.4928 z m 2.0312,2.4051 q -0.20252,-0.35667 -0.42878,-0.50595 -0.22626,-0.14929 -0.59089,-0.13615 -0.24648,0.009 -0.53568,0.13645 -0.28751,0.12128 -0.67588,0.3418 l -1.2325,0.69981 1.24661,2.19551 1.03831,-0.58955 q 0.5152,-0.29253 0.81484,-0.53086 0.29744,-0.24225 0.42646,-0.50417 0.13418,-0.28057 0.1247,-0.53723 -0.009,-0.25665 -0.18723,-0.56973 z m 6.27422,-3.4315 q 0.19577,0.34479 0.22456,0.7739 0.0327,0.42687 -0.1238,0.82495 -0.17303,0.43365 -0.51606,0.81709 -0.33907,0.38119 -0.93352,0.71872 -0.63805,0.36229 -1.21678,0.53367 -0.57477,0.16913 -1.23462,0.23459 l -0.55805,-0.98282 0.0555,-0.0315 q 0.65934,0.11826 1.36063,-0.0127 0.70128,-0.13092 1.21648,-0.42345 0.72919,-0.41403 0.97815,-0.917 0.25294,-0.50522 -0.006,-0.96097 -0.22277,-0.39233 -0.52272,-0.46834 -0.29598,-0.0783 -0.74683,0.0415 -0.34226,0.0895 -0.72023,0.23601 -0.37401,0.14429 -0.80741,0.28551 -0.87918,0.27909 -1.4869,0.0949 -0.60602,-0.19046 -0.9728,-0.83643 -0.42079,-0.74108 -0.0624,-1.56822 0.35613,-0.83109 1.31914,-1.37789 0.62219,-0.35328 1.20885,-0.52917 0.58666,-0.17588 1.08594,-0.22878 l 0.52654,0.92734 -0.0555,0.0315 q -0.49887,-0.0941 -1.15549,0.0325 -0.6549,0.1203 -1.22954,0.44658 -0.63012,0.35778 -0.86601,0.83761 -0.23194,0.47757 0.002,0.88973 0.20927,0.36855 0.51876,0.47059 0.30948,0.10203 0.85201,-0.0593 0.28513,-0.0885 0.79777,-0.27479 0.51267,-0.18621 0.88486,-0.28755 0.75687,-0.19917 1.29003,-0.0355 0.53317,0.16369 0.8932,0.79776 z"
   id="text227-1"
   aria-label="PBS" /><path
   id="rect227-7"
   style="fill:none;fill-opacity:0.878431;stroke:#008800;stroke-width:0.648739;stroke-opacity:1;paint-order:markers stroke fill"
   d="m 381.99272,356.66449 22.09667,-13.2271 c 1.11223,-0.66578 2.51604,-0.2578 3.14756,0.91476 l 3.20606,5.95273 c 0.63153,1.17255 0.24454,2.6525 -0.86769,3.31828 l -22.09667,13.22711 c -1.11222,0.66578 -2.51603,0.2578 -3.14755,-0.91476 l -3.20607,-5.95273 c -0.63152,-1.17255 -0.24453,-2.65251 0.86769,-3.31829 z" /><path
   style="font-size:9.33333px;mix-blend-mode:darken;fill:#9b31c5;stroke:#591c72;stroke-width:0.5;paint-order:markers stroke fill"
   d="m 466.67341,317.85718 -3.73316,2.1197 -3.35056,-5.90093 0.78468,-0.44555 2.95452,5.20344 2.94848,-1.67416 z m -1.40851,-6.0341 -0.84016,0.47704 -0.43879,-0.77278 0.84016,-0.47705 z m 2.88671,5.19478 -0.74505,0.42304 -2.51348,-4.42669 0.74504,-0.42304 z m 5.17569,-2.93877 -0.74505,0.42304 -1.43113,-2.52048 q -0.17327,-0.30515 -0.35968,-0.55043 -0.18867,-0.24924 -0.36931,-0.34582 -0.19359,-0.11019 -0.42485,-0.0837 -0.23351,0.0225 -0.53074,0.19131 -0.30515,0.17326 -0.55253,0.51287 -0.24739,0.33962 -0.41978,0.74671 l 1.87667,3.30515 -0.74504,0.42304 -2.51349,-4.42669 0.74505,-0.42304 0.27903,0.49142 q 0.18448,-0.48732 0.46475,-0.86133 0.28026,-0.374 0.6726,-0.59677 0.71731,-0.40729 1.33906,-0.18909 0.62176,0.2182 1.08305,1.03062 z m 5.4531,-3.09628 -0.98283,0.55805 -2.87577,-0.92983 -0.22247,0.73424 0.83933,1.4782 -0.74505,0.42304 -3.50132,-6.16645 0.74505,-0.42304 2.2457,3.95509 0.89405,-3.43719 0.93924,-0.5333 -0.8957,3.21278 z m 3.19798,-4.64055 -3.26156,1.85192 q 0.23177,0.40819 0.52788,0.64359 0.29387,0.23142 0.61813,0.3041 0.31409,0.0732 0.64947,0.009 0.33934,-0.0669 0.68016,-0.26043 0.45178,-0.25652 0.80627,-0.69363 0.35621,-0.44332 0.45138,-0.72795 l 0.0396,-0.0225 0.46129,0.81241 q -0.28648,0.37229 -0.61806,0.70206 -0.33158,0.32978 -0.76354,0.57505 -1.10172,0.62556 -2.05749,0.38213 -0.95801,-0.24738 -1.58132,-1.34513 -0.61655,-1.08586 -0.38835,-2.05919 0.23217,-0.97557 1.19914,-1.52463 0.89565,-0.50854 1.67616,-0.25995 0.78448,0.24634 1.33128,1.20935 z m -1.04927,-0.15888 q -0.33738,-0.58406 -0.81252,-0.73877 -0.47157,-0.15674 -1.06602,0.18079 -0.59841,0.33978 -0.75482,0.89501 -0.15244,0.55298 0.097,1.10309 z m 4.10162,-3.52903 -0.0396,0.0225 q -0.18896,0.0549 -0.35648,0.12903 -0.16581,0.0679 -0.37981,0.18944 -0.34478,0.19577 -0.57803,0.5326 -0.2355,0.33286 -0.39546,0.74337 l 1.78441,3.14267 -0.74504,0.42304 -2.51349,-4.42669 0.74505,-0.42304 0.37129,0.6539 q 0.24134,-0.6087 0.49494,-0.9466 0.25531,-0.34411 0.60802,-0.54438 0.19418,-0.11026 0.28813,-0.14785 0.0916,-0.0417 0.28181,-0.11286 z"
   id="text227-1-2"
   aria-label="Linker" /><path
   id="rect227-7-2"
   style="fill:none;fill-opacity:0.968627;stroke:#9b31c5;stroke-width:0.812243;stroke-opacity:1;paint-order:markers stroke fill"
   d="M 455.18442,312.24241 483.73,296.19203 c 1.43683,-0.80788 3.25034,-0.31282 4.06617,1.11002 l 4.14175,7.22331 c 0.81584,1.42283 0.3159,3.21868 -1.12092,4.02656 l -28.54558,16.05038 c -1.43683,0.80788 -3.25033,0.31282 -4.06617,-1.11001 l -4.14175,-7.22332 c -0.81583,-1.42283 -0.3159,-3.21868 1.12092,-4.02656 z" /><path
   style="font-size:9.33333px;mix-blend-mode:darken;fill:#ff11db;stroke:#c500a7;stroke-width:0.5;paint-order:markers stroke fill"
   d="m 160.35539,173.70931 q 0,0.39648 -0.18684,0.78385 -0.1823,0.38737 -0.51498,0.65625 -0.36458,0.29167 -0.85221,0.45573 -0.48307,0.16406 -1.16667,0.16406 -0.73372,0 -1.32161,-0.13672 -0.58333,-0.13671 -1.18945,-0.40559 v -1.13021 h 0.0638 q 0.51497,0.42838 1.18945,0.66081 0.67448,0.23242 1.26693,0.23242 0.83854,0 1.30338,-0.31446 0.4694,-0.31445 0.4694,-0.83854 0,-0.45117 -0.2233,-0.66536 -0.21875,-0.21419 -0.66993,-0.33268 -0.34179,-0.0911 -0.74283,-0.15039 -0.39649,-0.0592 -0.8431,-0.1504 -0.90235,-0.1914 -1.33985,-0.65169 -0.43294,-0.46484 -0.43294,-1.20768 0,-0.85221 0.72005,-1.39453 0.72006,-0.54688 1.82748,-0.54688 0.71549,0 1.3125,0.13672 0.597,0.13672 1.05729,0.33724 v 1.06641 h -0.0638 q -0.38737,-0.32813 -1.02084,-0.54232 -0.6289,-0.21875 -1.28971,-0.21875 -0.72461,0 -1.16667,0.30078 -0.4375,0.30078 -0.4375,0.77474 0,0.42383 0.21875,0.66537 0.21875,0.24153 0.77019,0.36914 0.29166,0.0638 0.82942,0.15494 0.53776,0.0911 0.91146,0.18685 0.75651,0.20052 1.13932,0.60612 0.38281,0.4056 0.38281,1.13477 z m 5.14519,1.61784 q -0.42839,0.20507 -0.81576,0.31901 -0.38281,0.11393 -0.81575,0.11393 -0.55144,0 -1.01172,-0.15951 -0.46029,-0.16406 -0.78841,-0.49218 -0.33269,-0.32813 -0.51498,-0.82943 -0.18229,-0.5013 -0.18229,-1.17122 0,-1.2487 0.68359,-1.95964 0.68815,-0.71094 1.81381,-0.71094 0.4375,0 0.85677,0.12305 0.42382,0.12305 0.77474,0.30078 v 0.95248 h -0.0456 q -0.39192,-0.30534 -0.8112,-0.46941 -0.41471,-0.16406 -0.81119,-0.16406 -0.72917,0 -1.153,0.49219 -0.41927,0.48763 -0.41927,1.43555 0,0.92057 0.41016,1.41731 0.41471,0.49219 1.16211,0.49219 0.25976,0 0.52864,-0.0684 0.26888,-0.0684 0.48308,-0.17773 0.18684,-0.0957 0.35091,-0.20052 0.16406,-0.10938 0.25976,-0.18685 h 0.0456 z m 5.05403,0.31901 h -0.85221 v -0.54232 q -0.11394,0.0775 -0.3099,0.21875 -0.19141,0.13672 -0.3737,0.21875 -0.21419,0.10482 -0.49218,0.17318 -0.278,0.0729 -0.6517,0.0729 -0.68815,0 -1.16666,-0.45573 -0.47852,-0.45573 -0.47852,-1.16211 0,-0.57877 0.24609,-0.93424 0.25066,-0.36003 0.71094,-0.5651 0.46485,-0.20508 1.11654,-0.278 0.65169,-0.0729 1.39909,-0.10937 v -0.13216 q 0,-0.29167 -0.10482,-0.48308 -0.10026,-0.1914 -0.29167,-0.30078 -0.18229,-0.10482 -0.4375,-0.14127 -0.25521,-0.0365 -0.5332,-0.0365 -0.33724,0 -0.75195,0.0911 -0.41472,0.0866 -0.85677,0.25521 h -0.0456 v -0.87044 q 0.25065,-0.0684 0.72461,-0.15039 0.47396,-0.082 0.93425,-0.082 0.53776,0 0.93424,0.0911 0.40104,0.0866 0.69271,0.30078 0.28711,0.20964 0.4375,0.54232 0.15039,0.33268 0.15039,0.82487 z m -0.85221,-1.25326 v -1.41732 q -0.39193,0.0228 -0.92513,0.0684 -0.52865,0.0456 -0.83855,0.13217 -0.36914,0.10481 -0.597,0.32812 -0.22786,0.21875 -0.22786,0.60612 0,0.4375 0.26432,0.66081 0.26432,0.21875 0.80664,0.21875 0.45117,0 0.82487,-0.17318 0.3737,-0.17773 0.69271,-0.42383 z m 5.24088,-5.00846 h -0.0456 q -0.14128,-0.041 -0.36914,-0.082 -0.22787,-0.0456 -0.40105,-0.0456 -0.55143,0 -0.80208,0.24609 -0.24609,0.24154 -0.24609,0.87956 v 0.17317 h 1.54492 v 0.72006 h -1.51758 v 4.37044 h -0.85677 v -4.37044 h -0.57877 v -0.72006 h 0.57877 v -0.16862 q 0,-0.9069 0.45117,-1.38997 0.45117,-0.48763 1.30339,-0.48763 0.28711,0 0.51497,0.0273 0.23242,0.0274 0.42383,0.0638 z m 3.28125,0 h -0.0456 q -0.14128,-0.041 -0.36914,-0.082 -0.22787,-0.0456 -0.40105,-0.0456 -0.55143,0 -0.80208,0.24609 -0.24609,0.24154 -0.24609,0.87956 v 0.17317 h 1.54492 v 0.72006 h -1.51758 v 4.37044 h -0.85677 v -4.37044 h -0.57877 v -0.72006 h 0.57877 v -0.16862 q 0,-0.9069 0.45117,-1.38997 0.45117,-0.48763 1.30339,-0.48763 0.28711,0 0.51497,0.0273 0.23242,0.0274 0.42383,0.0638 z m 4.88086,3.71875 q 0,1.24414 -0.63802,1.96419 -0.63802,0.72005 -1.70899,0.72005 -1.08008,0 -1.7181,-0.72005 -0.63346,-0.72005 -0.63346,-1.96419 0,-1.24414 0.63346,-1.96419 0.63802,-0.72461 1.7181,-0.72461 1.07097,0 1.70899,0.72461 0.63802,0.72005 0.63802,1.96419 z m -0.88412,0 q 0,-0.98893 -0.38737,-1.46745 -0.38737,-0.48307 -1.07552,-0.48307 -0.69726,0 -1.08463,0.48307 -0.38282,0.47852 -0.38282,1.46745 0,0.95703 0.38737,1.45377 0.38737,0.49219 1.08008,0.49219 0.6836,0 1.07097,-0.48763 0.39192,-0.49219 0.39192,-1.45833 z m 3.07617,2.54297 h -0.85677 v -7.09115 h 0.85677 z m 5.82422,0 h -0.85677 v -0.53321 q -0.36914,0.31901 -0.77018,0.49675 -0.40104,0.17773 -0.87045,0.17773 -0.91145,0 -1.44921,-0.70182 -0.53321,-0.70182 -0.53321,-1.94596 0,-0.64714 0.1823,-1.153 0.18684,-0.50586 0.5013,-0.86133 0.30989,-0.34635 0.72005,-0.52864 0.41471,-0.18229 0.85677,-0.18229 0.40104,0 0.71094,0.0866 0.30989,0.082 0.65169,0.25976 v -2.20573 h 0.85677 z m -0.85677,-1.25326 v -2.92122 q -0.34635,-0.15495 -0.61979,-0.21419 -0.27344,-0.0592 -0.59701,-0.0592 -0.72005,0 -1.12109,0.5013 -0.40104,0.50131 -0.40104,1.42188 0,0.9069 0.30989,1.38086 0.3099,0.4694 0.99349,0.4694 0.36459,0 0.73828,-0.15951 0.3737,-0.16406 0.69727,-0.41927 z"
   id="text227-4"
   aria-label="Scaffold" /><path
   id="rect227-5"
   style="fill:none;fill-opacity:0.878431;stroke:#ff10db;stroke-width:0.881671;paint-order:markers stroke fill"
   d="m 152.28435,165.42487 h 41.64361 c 1.57953,0 2.85113,1.27161 2.85113,2.85113 v 8.01881 c 0,1.57952 -1.2716,2.85113 -2.85113,2.85113 h -41.64361 c -1.57952,0 -2.85113,-1.27161 -2.85113,-2.85113 V 168.276 c 0,-1.57952 1.27161,-2.85113 2.85113,-2.85113 z" /><g
   id="text230"
   style="font-size:6.66667px;fill:#0707b9;stroke:#050578;stroke-width:0.5;paint-order:markers stroke fill"
   transform="rotate(-30.283923,2.3280979,3.0139667)"
   aria-label="  Genomic &#10;Modification"><path
     d="m -37.260304,380.66704 q -0.397136,0.18229 -0.869141,0.31901 -0.46875,0.13347 -0.908204,0.13347 -0.566406,0 -1.038412,-0.15625 -0.472005,-0.15625 -0.804036,-0.46875 -0.335287,-0.31576 -0.517579,-0.78776 -0.182291,-0.47526 -0.182291,-1.11003 0,-1.16211 0.677083,-1.83268 0.680339,-0.67383 1.865235,-0.67383 0.413412,0 0.8431,0.10091 0.432943,0.0977 0.93099,0.33529 v 0.76497 h -0.05859 q -0.100911,-0.0781 -0.292969,-0.20508 -0.192057,-0.12695 -0.377604,-0.21159 -0.22461,-0.10091 -0.511068,-0.16601 -0.283203,-0.0684 -0.644532,-0.0684 -0.813802,0 -1.289063,0.52409 -0.472005,0.52083 -0.472005,1.41276 0,0.94075 0.494792,1.46484 0.494792,0.52084 1.347657,0.52084 0.3125,0 0.621745,-0.0618 0.3125,-0.0618 0.546875,-0.15951 v -1.18815 h -1.298829 v -0.56641 h 1.93685 z m 4.121095,-1.39648 h -2.679037 q 0,0.33528 0.100911,0.58594 0.100912,0.24739 0.276693,0.4069 0.169271,0.15625 0.400391,0.23437 0.234375,0.0781 0.514323,0.0781 0.371094,0 0.745443,-0.14649 0.377604,-0.14974 0.53711,-0.29297 h 0.03255 v 0.66732 q -0.309245,0.13021 -0.631511,0.2181 -0.322266,0.0879 -0.677084,0.0879 -0.904948,0 -1.412761,-0.48828 -0.507812,-0.49154 -0.507812,-1.39323 0,-0.89193 0.485026,-1.41602 0.488281,-0.52408 1.282552,-0.52408 0.735678,0 1.132814,0.42968 0.40039,0.42969 0.40039,1.22071 z m -0.595703,-0.46875 q -0.0033,-0.48177 -0.244141,-0.74545 -0.23763,-0.26367 -0.725912,-0.26367 -0.491536,0 -0.784505,0.28972 -0.289714,0.28971 -0.328776,0.7194 z m 4.563805,2.22331 h -0.61198 v -2.07032 q 0,-0.25065 -0.0293,-0.46875 -0.0293,-0.22135 -0.107422,-0.34505 -0.08138,-0.13672 -0.234375,-0.20182 -0.152995,-0.0684 -0.397135,-0.0684 -0.250652,0 -0.524089,0.1237 -0.273438,0.12369 -0.524089,0.31575 v 2.71485 h -0.611979 v -3.63607 h 0.611979 v 0.40364 q 0.286458,-0.23763 0.592448,-0.37109 0.30599,-0.13346 0.628256,-0.13346 0.589193,0 0.898438,0.35481 0.309245,0.35482 0.309245,1.02214 z m 4.277346,-1.81641 q 0,0.88867 -0.455729,1.40299 -0.45573,0.51433 -1.220704,0.51433 -0.771485,0 -1.227214,-0.51433 -0.452474,-0.51432 -0.452474,-1.40299 0,-0.88867 0.452474,-1.403 0.455729,-0.51757 1.227214,-0.51757 0.764974,0 1.220704,0.51757 0.455729,0.51433 0.455729,1.403 z m -0.631511,0 q 0,-0.70638 -0.276692,-1.04818 -0.276693,-0.34505 -0.76823,-0.34505 -0.498047,0 -0.77474,0.34505 -0.273437,0.3418 -0.273437,1.04818 0,0.68359 0.276692,1.03841 0.276693,0.35156 0.771485,0.35156 0.488282,0 0.764974,-0.3483 0.279948,-0.35157 0.279948,-1.04167 z m 6.884768,1.81641 h -0.611979 v -2.07032 q 0,-0.23437 -0.02279,-0.45247 -0.01953,-0.2181 -0.08789,-0.34831 -0.07487,-0.13997 -0.214843,-0.21159 -0.139974,-0.0716 -0.403646,-0.0716 -0.257162,0 -0.514324,0.13021 -0.257161,0.12695 -0.514323,0.32552 0.0098,0.0749 0.01628,0.17578 0.0065,0.0977 0.0065,0.19531 v 2.32748 h -0.61198 v -2.07032 q 0,-0.24088 -0.02279,-0.45573 -0.01953,-0.2181 -0.08789,-0.3483 -0.07487,-0.13998 -0.214844,-0.20834 -0.139974,-0.0716 -0.403646,-0.0716 -0.250651,0 -0.504557,0.1237 -0.250651,0.12369 -0.501303,0.31575 v 2.71485 h -0.611979 v -3.63607 h 0.611979 v 0.40364 q 0.286459,-0.23763 0.569662,-0.37109 0.286459,-0.13346 0.608724,-0.13346 0.371094,0 0.628256,0.15625 0.260417,0.15625 0.38737,0.43294 0.371094,-0.3125 0.677084,-0.44922 0.305989,-0.13997 0.654297,-0.13997 0.598958,0 0.882162,0.36458 0.286458,0.36133 0.286458,1.01237 z m 1.835939,-4.2448 h -0.690104 v -0.63476 h 0.690104 z m -0.03906,4.2448 h -0.61198 v -3.63607 h 0.61198 z m 3.899741,-0.22787 q -0.30599,0.14649 -0.582683,0.22787 -0.273437,0.0814 -0.582682,0.0814 -0.393881,0 -0.722657,-0.11394 -0.328776,-0.11718 -0.563151,-0.35156 -0.237631,-0.23437 -0.367839,-0.59245 -0.130208,-0.35807 -0.130208,-0.83659 0,-0.89192 0.488281,-1.39974 0.491537,-0.50781 1.295574,-0.50781 0.3125,0 0.611979,0.0879 0.302735,0.0879 0.553386,0.21485 v 0.68033 h -0.03255 q -0.279948,-0.21809 -0.579428,-0.33528 -0.296224,-0.11719 -0.579427,-0.11719 -0.520834,0 -0.823568,0.35156 -0.299479,0.34831 -0.299479,1.02539 0,0.65756 0.292969,1.01237 0.296224,0.35157 0.830078,0.35157 0.185547,0 0.377604,-0.0488 0.192058,-0.0488 0.345053,-0.12695 0.133463,-0.0684 0.250651,-0.14323 0.117187,-0.0781 0.185547,-0.13347 h 0.03255 z"
     id="path232" /><path
     d="M -41.674369,389.35845 H -42.3189 v -4.17643 l -1.347657,2.8418 h -0.384115 l -1.337891,-2.8418 v 4.17643 h -0.602214 v -4.847 h 0.878907 l 1.292318,2.69856 1.250001,-2.69856 h 0.895182 z m 4.352216,-1.8164 q 0,0.88867 -0.45573,1.40299 -0.455729,0.51432 -1.220703,0.51432 -0.771485,0 -1.227214,-0.51432 -0.452475,-0.51432 -0.452475,-1.40299 0,-0.88868 0.452475,-1.403 0.455729,-0.51758 1.227214,-0.51758 0.764974,0 1.220703,0.51758 0.45573,0.51432 0.45573,1.403 z m -0.631511,0 q 0,-0.70638 -0.276693,-1.04818 -0.276693,-0.34505 -0.768229,-0.34505 -0.498047,0 -0.77474,0.34505 -0.273438,0.3418 -0.273438,1.04818 0,0.68359 0.276693,1.03841 0.276693,0.35156 0.771485,0.35156 0.488281,0 0.764974,-0.34831 0.279948,-0.35156 0.279948,-1.04166 z m 4.527998,1.8164 h -0.61198 v -0.38086 q -0.263672,0.22787 -0.55013,0.35482 -0.286459,0.12695 -0.621745,0.12695 -0.651042,0 -1.035157,-0.5013 -0.38086,-0.5013 -0.38086,-1.38997 0,-0.46224 0.130209,-0.82357 0.133463,-0.36133 0.358073,-0.61523 0.221354,-0.2474 0.514323,-0.37761 0.296224,-0.13021 0.611979,-0.13021 0.286459,0 0.507813,0.0618 0.221354,0.0586 0.465495,0.18555 v -1.57552 h 0.61198 z m -0.61198,-0.89518 v -2.08659 q -0.247396,-0.11068 -0.442708,-0.15299 -0.195313,-0.0423 -0.426433,-0.0423 -0.514323,0 -0.800782,0.35807 -0.286458,0.35807 -0.286458,1.01563 0,0.64778 0.221354,0.98633 0.221355,0.33528 0.709636,0.33528 0.260417,0 0.527344,-0.11393 0.266927,-0.11719 0.498047,-0.29948 z m 2.473959,-3.34961 h -0.690104 v -0.63477 h 0.690104 z m -0.03906,4.24479 h -0.61198 v -3.63607 h 0.61198 z m 3.167319,-4.47266 h -0.03255 q -0.100912,-0.0293 -0.263672,-0.0586 -0.162761,-0.0326 -0.286459,-0.0326 -0.39388,0 -0.572917,0.17578 -0.175781,0.17253 -0.175781,0.62826 v 0.12369 h 1.103516 v 0.51433 h -1.083985 v 3.12174 h -0.611979 v -3.12174 h -0.413412 v -0.51433 h 0.413412 v -0.12044 q 0,-0.64779 0.322265,-0.99284 0.322266,-0.34831 0.930991,-0.34831 0.205078,0 0.367838,0.0195 0.166016,0.0195 0.302735,0.0456 z m 1.044922,0.22787 h -0.690105 v -0.63477 h 0.690105 z m -0.03906,4.24479 h -0.611979 v -3.63607 h 0.611979 z m 3.899742,-0.22786 q -0.30599,0.14648 -0.582683,0.22786 -0.273438,0.0814 -0.582683,0.0814 -0.39388,0 -0.722656,-0.11393 -0.328776,-0.11719 -0.563151,-0.35156 -0.237631,-0.23438 -0.367839,-0.59245 -0.130209,-0.35807 -0.130209,-0.83659 0,-0.89193 0.488282,-1.39974 0.491537,-0.50781 1.295573,-0.50781 0.312501,0 0.61198,0.0879 0.302734,0.0879 0.553386,0.21484 v 0.68034 h -0.03255 q -0.279949,-0.2181 -0.579428,-0.33528 -0.296224,-0.11719 -0.579427,-0.11719 -0.520834,0 -0.823568,0.35156 -0.29948,0.34831 -0.29948,1.02539 0,0.65755 0.292969,1.01237 0.296224,0.35156 0.830079,0.35156 0.185547,0 0.377604,-0.0488 0.192058,-0.0488 0.345052,-0.12696 0.133464,-0.0684 0.250652,-0.14323 0.117187,-0.0781 0.185547,-0.13346 h 0.03255 z m 3.610029,0.22786 h -0.608724 v -0.38737 q -0.08138,0.0553 -0.221355,0.15625 -0.136718,0.0977 -0.266927,0.15625 -0.152995,0.0749 -0.351562,0.1237 -0.198568,0.0521 -0.465495,0.0521 -0.491537,0 -0.833334,-0.32552 -0.341797,-0.32552 -0.341797,-0.83007 0,-0.41342 0.175781,-0.66732 0.179037,-0.25716 0.507813,-0.40365 0.332031,-0.14648 0.797526,-0.19857 0.465495,-0.0521 0.99935,-0.0781 v -0.0944 q 0,-0.20834 -0.07487,-0.34505 -0.07161,-0.13672 -0.208334,-0.21485 -0.130208,-0.0749 -0.3125,-0.10091 -0.182291,-0.026 -0.380859,-0.026 -0.240886,0 -0.53711,0.0651 -0.296224,0.0618 -0.611979,0.18229 h -0.03255 v -0.62174 q 0.179036,-0.0488 0.517578,-0.10742 0.338542,-0.0586 0.667318,-0.0586 0.384115,0 0.667318,0.0651 0.286458,0.0619 0.494792,0.21484 0.205078,0.14974 0.3125,0.38737 0.107422,0.23763 0.107422,0.58919 z m -0.608724,-0.89518 v -1.01237 q -0.279948,0.0163 -0.660808,0.0488 -0.377604,0.0326 -0.598959,0.0944 -0.263672,0.0749 -0.426432,0.23437 -0.162761,0.15625 -0.162761,0.43295 0,0.3125 0.188803,0.472 0.188802,0.15625 0.576172,0.15625 0.322266,0 0.589193,-0.12369 0.266927,-0.12696 0.494792,-0.30274 z m 3.675132,0.86263 q -0.172526,0.0456 -0.377605,0.0749 -0.201823,0.0293 -0.361328,0.0293 -0.556641,0 -0.846355,-0.29948 -0.289713,-0.29948 -0.289713,-0.96029 v -1.93359 H -19.1418 v -0.51433 h 0.413412 v -1.04492 h 0.611979 v 1.04492 h 1.263022 v 0.51433 h -1.263022 v 1.6569 q 0,0.28646 0.01302,0.44922 0.01302,0.1595 0.09115,0.29948 0.07161,0.13021 0.195313,0.19205 0.126953,0.0586 0.384114,0.0586 0.14974,0 0.3125,-0.0423 0.162761,-0.0456 0.234376,-0.0749 h 0.03255 z m 1.396483,-4.21224 h -0.690104 v -0.63477 h 0.690104 z m -0.03906,4.24479 h -0.61198 v -3.63607 h 0.61198 z m 4.309898,-1.8164 q 0,0.88867 -0.45573,1.40299 -0.455729,0.51432 -1.220704,0.51432 -0.771484,0 -1.227214,-0.51432 -0.452474,-0.51432 -0.452474,-1.40299 0,-0.88868 0.452474,-1.403 0.45573,-0.51758 1.227214,-0.51758 0.764975,0 1.220704,0.51758 0.45573,0.51432 0.45573,1.403 z m -0.631511,0 q 0,-0.70638 -0.276693,-1.04818 -0.276693,-0.34505 -0.76823,-0.34505 -0.498047,0 -0.774739,0.34505 -0.273438,0.3418 -0.273438,1.04818 0,0.68359 0.276693,1.03841 0.276693,0.35156 0.771484,0.35156 0.488282,0 0.764975,-0.34831 0.279948,-0.35156 0.279948,-1.04166 z m 4.6191452,1.8164 h -0.6119795 v -2.07031 q 0,-0.25065 -0.029297,-0.46875 -0.029297,-0.22135 -0.1074219,-0.34505 -0.08138,-0.13672 -0.2343751,-0.20183 -0.1529949,-0.0684 -0.3971356,-0.0684 -0.2506512,0 -0.5240888,0.1237 -0.2734376,0.1237 -0.5240888,0.31576 v 2.71484 h -0.6119795 v -3.63607 h 0.6119795 v 0.40365 q 0.2864585,-0.23763 0.5924482,-0.37109 0.3059897,-0.13347 0.6282555,-0.13347 0.589193,0 0.8984379,0.35482 0.309245,0.35482 0.309245,1.02214 z"
     id="path233" /></g><path
   d="m 199.39232,338.32441 -0.94235,0.75715 q -1.12452,0.90354 -2.49969,0.55818 -1.36216,-0.34129 -2.62467,-2.0534 L 192.325,336.2294 q -1.13491,-1.53907 -2.29431,-1.98527 -1.16612,-0.45532 -2.24039,0.40784 l -0.32039,0.25743 -1.04762,-1.42069 0.3204,-0.25743 q 1.07427,-0.86316 0.95773,-2.14728 -0.12326,-1.29322 -1.25818,-2.8323 l -1.0006,-1.35694 q -1.26251,-1.71211 -1.23001,-3.17399 0.0321,-1.47604 1.1566,-2.37958 l 0.94234,-0.75715 0.92674,1.25676 -0.71618,0.57544 q -0.85439,0.68649 -0.82082,1.57318 0.0399,0.88165 0.98002,2.15662 l 1.17521,1.59373 q 0.93345,1.26586 1.08768,2.51969 0.14752,1.24473 -0.3438,2.43715 l 0.16117,0.21857 q 1.23003,-0.19066 2.35173,0.28583 1.11499,0.46739 2.04845,1.73326 l 1.1752,1.59371 q 0.94017,1.27498 1.74646,1.54081 0.81258,0.26079 1.66697,-0.4257 l 0.71618,-0.57544 z"
   id="text232"
   style="font-size:19.5485px;fill-opacity:0.972549;stroke:#0f6da6;stroke-width:0;stroke-linejoin:bevel;stroke-opacity:0.984314;paint-order:markers stroke fill"
   aria-label="{" /><g
   id="g10"
   transform="translate(-6)"><path
     id="rect227-1"
     style="fill:none;fill-opacity:0.878431;stroke:#1699ea;stroke-width:0.949983;stroke-opacity:0.984314;paint-order:markers stroke fill"
     d="m 603.51679,301.33344 h 46.74724 c 2.353,0 4.24728,1.26528 4.24728,2.83694 v 7.97889 c 0,1.57166 -1.89428,2.83693 -4.24728,2.83693 h -46.74724 c -2.35299,0 -4.24728,-1.26527 -4.24728,-2.83693 v -7.97889 c 0,-1.57166 1.89429,-2.83694 4.24728,-2.83694 z" /><g
     id="g9"><g
       id="text6"
       style="font-size:9.33333px;letter-spacing:-0.22px;word-spacing:0px;white-space:pre;fill:#1384c9;fill-opacity:0.992157;stroke:#1384ca;stroke-width:0;stroke-linejoin:bevel;stroke-opacity:0.992157;paint-order:markers stroke fill"
       transform="translate(-62.173518,1.2602691)"
       aria-label="tevopreQ1"><path
         style="font-weight:bold;font-size:8.66667px;font-family:Sans;-inkscape-font-specification:'Sans Bold';stroke:#07324c"
         d="m 669.60156,309.67784 q -0.24544,0.0635 -0.5205,0.0973 -0.27507,0.0381 -0.67286,0.0381 -0.88867,0 -1.32454,-0.3597 -0.43164,-0.3597 -0.43164,-1.23145 v -2.22168 h -0.6263 v -1.03255 h 0.6263 v -1.3584 h 1.52344 v 1.3584 h 1.4261 v 1.03255 h -1.4261 v 1.68425 q 0,0.24967 0.004,0.43587 0.004,0.1862 0.0677,0.33431 0.0592,0.14811 0.20735,0.23698 0.15235,0.0846 0.44011,0.0846 0.11849,0 0.30892,-0.0508 0.19466,-0.0508 0.27083,-0.0931 h 0.12695 z m 5.37018,-2.05241 h -3.48699 q 0.0339,0.55859 0.42318,0.85482 0.39356,0.29622 1.15528,0.29622 0.48242,0 0.93522,-0.1735 0.4528,-0.1735 0.71517,-0.3724 h 0.16927 v 1.22299 q -0.51628,0.20735 -0.97331,0.30045 -0.45703,0.0931 -1.01139,0.0931 -1.43034,0 -2.19206,-0.64323 -0.76172,-0.64323 -0.76172,-1.83236 0,-1.17643 0.7194,-1.86198 0.72363,-0.68977 1.98047,-0.68977 1.15951,0 1.74349,0.58821 0.58399,0.58399 0.58399,1.68425 z m -1.51498,-0.8929 q -0.0127,-0.47819 -0.23698,-0.7194 -0.22428,-0.24122 -0.69824,-0.24122 -0.44011,0 -0.72363,0.22852 -0.28353,0.22852 -0.31739,0.7321 z m 7.15598,-1.76465 -1.83236,4.75228 h -1.72656 l -1.81966,-4.75228 h 1.6123 l 1.10026,3.26693 1.08757,-3.26693 z m 5.48443,2.37825 q 0,1.1722 -0.68555,1.84929 -0.68131,0.67285 -1.91699,0.67285 -1.23568,0 -1.92123,-0.67285 -0.68131,-0.67709 -0.68131,-1.84929 0,-1.18066 0.68555,-1.85351 0.68978,-0.67285 1.91699,-0.67285 1.24414,0 1.92122,0.67708 0.68132,0.67708 0.68132,1.84928 z m -1.87468,1.15528 q 0.14812,-0.18197 0.22006,-0.43587 0.0762,-0.25814 0.0762,-0.71094 0,-0.41895 -0.0762,-0.70248 -0.0762,-0.28353 -0.21159,-0.4528 -0.13542,-0.1735 -0.32585,-0.24544 -0.19043,-0.0719 -0.41048,-0.0719 -0.22005,0 -0.39356,0.0593 -0.16927,0.0592 -0.32584,0.23697 -0.13965,0.16504 -0.22429,0.4528 -0.0804,0.28776 -0.0804,0.72364 0,0.38932 0.0719,0.67708 0.0719,0.28353 0.21159,0.45703 0.13542,0.16504 0.32161,0.24121 0.19043,0.0762 0.43164,0.0762 0.20736,0 0.39356,-0.0677 0.19043,-0.0719 0.32161,-0.23698 z m 7.70611,-1.22298 q 0,0.58821 -0.18196,1.07063 -0.17774,0.48243 -0.46973,0.79558 -0.30469,0.33008 -0.68978,0.49935 -0.38509,0.16927 -0.82519,0.16927 -0.40625,0 -0.68978,-0.0889 -0.28353,-0.0846 -0.57976,-0.24121 v 1.98047 h -1.52343 v -6.49577 h 1.52343 v 0.49512 q 0.35124,-0.2793 0.71517,-0.4528 0.36817,-0.17351 0.84636,-0.17351 0.88867,0 1.37956,0.6517 0.49511,0.65169 0.49511,1.79004 z m -1.56998,0.0296 q 0,-0.69401 -0.23698,-1.00716 -0.23698,-0.31316 -0.74903,-0.31316 -0.21582,0 -0.44433,0.0677 -0.22852,0.0635 -0.43588,0.1862 v 2.39095 q 0.15235,0.0593 0.32585,0.0762 0.1735,0.0169 0.34277,0.0169 0.60515,0 0.90137,-0.35124 0.29623,-0.35546 0.29623,-1.0664 z m 5.89491,-0.88867 h -0.13542 q -0.0973,-0.0339 -0.31315,-0.0508 -0.21582,-0.0169 -0.3597,-0.0169 -0.32585,0 -0.57552,0.0423 -0.24968,0.0423 -0.53744,0.14388 v 3.18229 h -1.52344 v -4.75228 h 1.52344 v 0.69824 q 0.50358,-0.43164 0.87598,-0.57129 0.37239,-0.14388 0.68555,-0.14388 0.0804,0 0.18196,0.004 0.10156,0.004 0.17774,0.0127 z m 5.32362,1.20605 h -3.48698 q 0.0339,0.55859 0.42318,0.85482 0.39355,0.29622 1.15527,0.29622 0.48242,0 0.93522,-0.1735 0.4528,-0.1735 0.71517,-0.3724 h 0.16927 v 1.22299 q -0.51627,0.20735 -0.97331,0.30045 -0.45703,0.0931 -1.01139,0.0931 -1.43034,0 -2.19206,-0.64323 -0.76172,-0.64323 -0.76172,-1.83236 0,-1.17643 0.71941,-1.86198 0.72363,-0.68977 1.98046,-0.68977 1.15951,0 1.7435,0.58821 0.58398,0.58399 0.58398,1.68425 z m -1.51497,-0.8929 q -0.0127,-0.47819 -0.23698,-0.7194 -0.22429,-0.24122 -0.69825,-0.24122 -0.4401,0 -0.72363,0.22852 -0.28353,0.22852 -0.31738,0.7321 z m 6.42811,1.43457 q 0.23698,-0.28776 0.35123,-0.67709 0.11426,-0.39355 0.11426,-0.92252 0,-0.56706 -0.13118,-0.96485 -0.13119,-0.39778 -0.34278,-0.64323 -0.21582,-0.2539 -0.49935,-0.36816 -0.27929,-0.11426 -0.58398,-0.11426 -0.30892,0 -0.58398,0.11003 -0.27084,0.11002 -0.49935,0.36393 -0.21159,0.23698 -0.34701,0.65593 -0.13118,0.41471 -0.13118,0.96484 0,0.56283 0.12695,0.96061 0.13118,0.39356 0.34277,0.64323 0.21159,0.24968 0.49512,0.36817 0.28353,0.11849 0.59668,0.11849 0.31315,0 0.59668,-0.11849 0.28353,-0.12273 0.49512,-0.37663 z m 0.1735,1.47689 q 0.0169,0.41894 0.22852,0.60091 0.21158,0.18196 0.72363,0.18196 0.1735,0 0.41048,-0.0592 0.23698,-0.0592 0.33008,-0.10579 h 0.16081 v 1.11718 q -0.23698,0.055 -0.51628,0.0973 -0.27507,0.0423 -0.84635,0.0423 -0.50359,0 -0.88021,-0.12695 -0.3724,-0.12272 -0.62207,-0.35124 -0.24545,-0.22428 -0.36817,-0.52897 -0.12272,-0.30469 -0.14388,-0.67708 -1.41341,-0.0804 -2.20475,-0.94369 -0.78711,-0.86751 -0.78711,-2.31901 0,-1.51921 0.86328,-2.39942 0.86328,-0.88444 2.38249,-0.88444 1.51497,0 2.38249,0.88444 0.86751,0.88021 0.86751,2.39942 0,1.12142 -0.50781,1.93815 -0.50782,0.8125 -1.47266,1.13412 z"
         id="path10" /><path
         style="font-weight:bold;font-size:65%;font-family:Sans;-inkscape-font-specification:'Sans Bold';baseline-shift:sub;stroke:#07324c"
         d="m 712.59255,311.58682 h -2.94446 v -0.77018 h 0.93014 v -2.33128 h -0.93014 v -0.71982 q 0.21328,0 0.40879,-0.0237 0.19551,-0.0267 0.32584,-0.0889 0.15404,-0.074 0.23106,-0.19254 0.077,-0.11849 0.0889,-0.29623 h 0.9805 v 3.65244 h 0.9094 z"
         id="path11" /></g></g></g></svg>
